<?xml version="1.0" standalone="no"?>
<!DOCTYPE svg PUBLIC "-//W3C//DTD SVG 1.1//EN" "http://www.w3.org/Graphics/SVG/1.1/DTD/svg11.dtd" >
<svg xmlns="http://www.w3.org/2000/svg">
<metadata>Generated by IcoMoon</metadata>
<defs>
<font id="cor" horiz-adv-x="1024">
<font-face units-per-em="1024" ascent="960" descent="-64" />
<missing-glyph horiz-adv-x="1024" />
<glyph unicode="&#x20;" horiz-adv-x="512" d="" />
<glyph unicode="&#xe900;" glyph-name="alarm" d="M482.82 883.735c-65.24-3.352-129.316-21.734-190.992-54.796-147.558-79.106-240.742-234.462-240.848-401.46-0.070-121.376 44.846-233.226 128.574-320.166 68.522-71.168 154.72-116.684 254.362-134.326 28.474-5.046 94.138-7.056 123.388-3.74 102.888 11.608 198.436 55.82 270.452 125.116 63.406 61.042 107.37 135.526 128.328 217.526 28.722 112.38 14.854 227.51-39.87 331.176-40.506 76.708-104.088 140.994-183.088 185.028-75.754 42.234-157.508 60.406-250.304 55.642zM573.148 809.779c39.8-6.352 69.968-15.914 107.264-34.014 42.13-20.394 81.048-48.692 112.592-81.858 52.856-55.536 87.68-124.518 101.3-200.66 6.104-34.332 6.14-99.782 0-133.268-10.056-54.902-28.050-100.030-57.936-145.406-40.436-61.358-89.022-104.334-154.050-136.196-85.246-41.776-178.078-51.832-268.016-29.038-155.602 39.448-271.334 171.48-290.14 331.070-2.894 24.734-1.234 90.75 2.858 112.132 7.55 39.412 15.42 63.688 32.074 98.796 37.012 77.978 94.984 138.208 171.304 177.972 47.316 24.628 93.432 38.424 146.782 43.858 16.23 1.658 78.012-0.53 95.972-3.388zM484.726 647.757c-8.644-4.658-14.29-10.514-18.1-18.806-3.246-7.056-3.458-14.714-3.494-121.13-0.036-84.4 0.53-115.626 2.258-121.342 1.27-4.234 5.292-10.586 8.926-14.148 9.598-9.28 178.008-111.462 188.134-114.144 37.154-9.774 59.912 41 28.050 62.558-4.516 3.034-41.424 25.722-82.070 50.42l-73.85 44.916v205.494l-4.234 8.292c-6.492 12.738-16.16 19.406-29.18 20.252-7.48 0.458-12.562-0.282-16.442-2.364z" />
<glyph unicode="&#xe901;" glyph-name="arrow-next" horiz-adv-x="1331" d="M1207.267 503.467c42.415 0 76.8-34.385 76.8-76.8v0c0-42.415-34.385-76.8-76.8-76.8v0h-1075.2c-42.415 0-76.8 34.385-76.8 76.8v0c0 42.415 34.385 76.8 76.8 76.8v0zM823.267 887.467c0.056 0 0.122 0 0.188 0 21.161 0 40.323-8.558 54.214-22.402l383.998-383.998c13.954-13.907 22.589-33.145 22.589-54.4s-8.634-40.493-22.586-54.398l-0.002-0.002c-13.907-13.954-33.145-22.589-54.4-22.589s-40.493 8.634-54.398 22.586l-384.002 384.002c-13.954 13.907-22.589 33.145-22.589 54.4s8.634 40.493 22.586 54.398l0.002 0.002c13.889 13.842 33.051 22.4 54.212 22.4 0.066 0 0.132 0 0.199 0h-0.010zM1207.267 503.467c0.056 0 0.122 0 0.188 0 21.161 0 40.323-8.558 54.214-22.402l-0.002 0.002c13.954-13.907 22.589-33.145 22.589-54.4s-8.634-40.493-22.586-54.398l-384.002-384.002c-13.907-13.954-33.145-22.589-54.4-22.589s-40.493 8.634-54.398 22.586l-0.002 0.002c-13.954 13.907-22.589 33.145-22.589 54.4s8.634 40.493 22.586 54.398l384.002 384.002c13.889 13.842 33.051 22.4 54.212 22.4 0.066 0 0.132 0 0.199 0h-0.010z" />
<glyph unicode="&#xe902;" glyph-name="arrow-prev" horiz-adv-x="1331" d="M123.733 503.467c-42.415 0-76.8-34.385-76.8-76.8v0c0-42.415 34.385-76.8 76.8-76.8v0h1075.2c42.415 0 76.8 34.385 76.8 76.8v0c0 42.415-34.385 76.8-76.8 76.8v0zM507.733 887.467c-0.056 0-0.122 0-0.188 0-21.161 0-40.323-8.558-54.214-22.402l-383.998-383.998c-13.954-13.907-22.589-33.145-22.589-54.4s8.634-40.493 22.586-54.398l0.002-0.002c13.907-13.954 33.145-22.589 54.4-22.589s40.493 8.634 54.398 22.586l384.002 384.002c13.954 13.907 22.589 33.145 22.589 54.4s-8.634 40.493-22.586 54.398l-0.002 0.002c-13.889 13.842-33.051 22.4-54.212 22.4-0.066 0-0.132 0-0.199 0h0.010zM123.733 503.467c-0.056 0-0.122 0-0.188 0-21.161 0-40.323-8.558-54.214-22.402l0.002 0.002c-13.954-13.907-22.589-33.145-22.589-54.4s8.634-40.493 22.586-54.398l384.002-384.002c13.907-13.954 33.145-22.589 54.4-22.589s40.493 8.634 54.398 22.586l0.002 0.002c13.954 13.907 22.589 33.145 22.589 54.4s-8.634 40.493-22.586 54.398l-384.002 384.002c-13.889 13.842-33.051 22.4-54.212 22.4-0.066 0-0.132 0-0.199 0h0.010z" />
<glyph unicode="&#xe903;" glyph-name="arrow-round-next" d="M512 896c258.664 0 469.333-210.669 469.333-469.333 0-258.669-210.669-469.333-469.333-469.333-258.668 0-469.333 210.667-469.333 469.333 0 258.664 210.666 469.333 469.333 469.333zM512 802.134c-207.949 0-375.467-167.521-375.467-375.467 0-207.949 167.516-375.467 375.467-375.467 207.946 0 375.467 167.517 375.467 375.467 0 207.946-167.522 375.467-375.467 375.467zM699.733 473.6c25.92 0 46.933-21.013 46.933-46.933v0c0-25.92-21.013-46.933-46.933-46.933v0h-375.467c-25.92 0-46.933 21.013-46.933 46.933v0c0 25.92 21.013 46.933 46.933 46.933v0zM558.933 614.4c0.035 0 0.074 0 0.115 0 12.932 0 24.642-5.231 33.131-13.69l140.799-140.799c8.527-8.499 13.801-20.256 13.801-33.244s-5.276-24.745-13.8-33.243l-140.801-140.801c-8.498-8.528-20.256-13.803-33.244-13.803s-24.746 5.277-33.243 13.802l-0.001 0.001c-8.528 8.498-13.803 20.256-13.803 33.244s5.277 24.746 13.802 33.243l107.557 107.557-107.556 107.556c-8.528 8.498-13.803 20.256-13.803 33.244s5.277 24.746 13.802 33.243l0.001 0.001c8.488 8.458 20.197 13.689 33.13 13.689 0.041 0 0.082 0 0.12 0h-0.006z" />
<glyph unicode="&#xe904;" glyph-name="arrow-round-prev" d="M512 896c-258.664 0-469.333-210.669-469.333-469.333 0-258.669 210.669-469.333 469.333-469.333 258.668 0 469.333 210.667 469.333 469.333 0 258.664-210.666 469.333-469.333 469.333zM512 802.134c207.949 0 375.467-167.521 375.467-375.467 0-207.949-167.516-375.467-375.467-375.467-207.946 0-375.467 167.517-375.467 375.467 0 207.946 167.522 375.467 375.467 375.467zM324.267 473.6c-25.92 0-46.933-21.013-46.933-46.933v0c0-25.92 21.013-46.933 46.933-46.933v0h375.467c25.92 0 46.933 21.013 46.933 46.933v0c0 25.92-21.013 46.933-46.933 46.933v0zM465.067 614.4c-0.035 0-0.074 0-0.115 0-12.932 0-24.642-5.231-33.131-13.69l-140.799-140.799c-8.527-8.499-13.801-20.256-13.801-33.244s5.276-24.745 13.8-33.243l140.801-140.801c8.498-8.528 20.256-13.803 33.244-13.803s24.746 5.277 33.243 13.802l0.001 0.001c8.528 8.498 13.803 20.256 13.803 33.244s-5.277 24.746-13.802 33.243l-107.557 107.557 107.556 107.556c8.528 8.498 13.803 20.256 13.803 33.244s-5.277 24.746-13.802 33.243l-0.001 0.001c-8.488 8.458-20.197 13.689-33.13 13.689-0.041 0-0.082 0-0.12 0h0.006z" />
<glyph unicode="&#xe905;" glyph-name="attachment" d="M117.544 882.541c-16.935-8.406-25.017-27.482-19.844-46.8 2.062-7.559 7.72-14.63 29.704-37.222l27.158-27.847-26.997-27.441c-19.277-19.52-27.806-29.827-29.745-35.768-8.044-24.935 11.721-51.408 38.475-51.408 14.954 0 22.148 4.606 50.398 32.453l25.341 24.935 25.341-24.935c32.371-31.886 39.848-35.809 59.855-31.524 20.209 4.325 33.423 24.532 30.189 46.236-1.455 9.82-3.274 12.165-29.745 38.919l-28.168 28.533 27.119 27.847c20.369 20.854 27.724 29.906 29.462 36.13 3.435 12.367 2.868 19.885-2.264 30.554-8.689 17.904-31.644 26.836-50.76 19.721-3.315-1.253-18.43-14.589-33.545-29.625l-27.482-27.321-27.482 27.321c-15.115 15.033-30.23 28.372-33.545 29.625-9.659 3.596-23.36 2.626-33.463-2.384zM772.709 671.328c-29.906-2.708-65.554-15.761-89.358-32.736-15.6-11.114-31.886-27.482-35.16-35.324-6.467-15.48-0.85-36.454 12.489-46.437 9.013-6.75 15.115-8.648 26.956-8.406 11.356 0.202 17.741 3.435 33.101 16.651 43.85 37.827 109.243 35.403 150.181-5.538 35.604-35.604 43.204-86.852 19.642-132.399-5.739-11.073-28.089-34.392-144.888-151.273-144.605-144.686-147.271-147.070-173.541-154.749-16.894-4.971-47.851-4.568-65.431 0.888-45.628 14.064-76.951 57.227-76.951 105.969 0 36.373 9.983 56.257 48.619 96.43 30.595 31.848 34.839 39.042 32.333 54.721-4.121 25.907-31.565 41.022-55.974 30.837-15.197-6.344-63.734-57.469-79.051-83.254-19.157-32.21-26.877-61.389-26.512-100.188 0.283-32.938 4.647-52.419 18.147-80.628 24.815-51.893 69.109-88.468 126.014-104.029 24.169-6.587 70.078-6.627 94.207-0.082 19.683 5.374 44.092 16.327 61.389 27.604 14.995 9.741 272.316 265.081 292.846 290.582 44.819 55.691 55.652 127.913 29.018 193.385-32.129 79.010-110.858 125.891-198.073 117.97zM465.315 583.105c-30.633-4.083-62.28-16.771-88.388-35.484-7.112-5.091-76.507-73.11-154.223-151.191-133.006-133.57-141.897-142.948-151.474-160.205-5.617-10.062-13.296-28.007-17.136-39.889-6.627-20.571-6.951-23.077-6.951-56.015 0-32.978 0.324-35.444 6.951-56.056 21.541-66.807 73.352-114.9 142.058-131.832 22.026-5.415 65.554-4.849 88.105 1.171 41.425 11.073 90.085 42.719 98.127 63.857 3.394 8.932 2.991 25.461-0.809 32.736-7.597 14.469-20.773 22.227-37.666 22.189-11.195-0.041-18.792-3.92-37.182-18.994-20.895-17.055-40.94-24.088-68.825-24.088-31.848 0-54.803 9.577-78.122 32.614-33.828 33.382-42.518 81.598-22.712 125.812 6.507 14.469 12.448 20.773 144.888 153.656 75.94 76.223 142.665 141.532 148.241 145.13 16.57 10.71 31.121 15.276 52.337 16.45 33.624 1.86 58.845-6.791 82.325-28.209 36.819-33.624 46.881-85.114 25.461-130.337-6.224-13.216-12.285-20.732-37.342-46.356-32.251-32.978-36.253-39.565-34.313-56.742 3.032-26.754 33.463-43.365 57.186-31.159 10.266 5.254 63.977 60.098 74.080 75.657 11.721 17.983 18.43 32.333 24.856 53.225 5.374 17.419 5.859 21.906 5.821 54.519-0.041 33.139-0.444 36.819-6.063 53.914-11.519 34.839-27.078 60.177-51.207 83.254-41.951 40.172-101.441 59.894-158.023 52.378z" />
<glyph unicode="&#xe906;" glyph-name="back" d="M468.806 891.823c-87.974-7.78-174.54-42.386-247.834-99.028-37.316-28.832-83.75-81.214-109.342-123.248-91.846-150.882-91.846-339.152 0-490.034 25.592-42.034 72.168-94.592 109.342-123.318 67.696-52.278 140.216-83.398 225.302-96.668 30.346-4.718 101.104-4.718 131.45 0 105.048 16.404 192.598 60.41 265.752 133.528 73.118 73.154 117.122 160.704 133.528 265.752 4.718 30.346 4.718 101.104 0 131.45-13.306 85.122-44.462 157.782-96.704 225.302-15.806 20.418-56.712 61.29-77.272 77.236-97.022 75.090-213.756 109.66-334.222 99.028zM546.464 798.111c86.284-8.202 164.084-43.934 226.254-103.956 92.62-89.418 132.894-220.656 106.456-347.002-12.322-58.86-40.062-116.206-78.364-162.006-35.908-42.948-76.532-74.772-125.852-98.606-103.498-49.954-222.416-49.954-325.914 0-49.32 23.832-89.946 55.656-125.852 98.606-93.818 112.158-112.968 272.158-48.37 403.68 63.156 128.564 190.134 208.898 333.412 210.94 9.822 0.14 27.036-0.598 38.232-1.654zM448.176 609.069c-7.146-2.464-20.278-14.68-84.172-78.222-41.646-41.434-77.976-79.138-80.756-83.784-4.224-7.146-4.998-10.632-4.998-22.53 0-11.934 0.774-15.384 5.034-22.53 6.266-10.526 152.22-156.164 160.88-160.494 21.334-10.738 49.144-2.112 61.606 19.116 4.542 7.744 5.28 10.984 5.246 23.094 0 10.034-1.020 15.982-3.486 20.664-1.936 3.59-18.342 21.544-36.506 39.886l-33.056 33.338 135.112 0.070c107.97 0.070 136.554 0.598 142.152 2.606 10.386 3.696 19.432 11.3 25.312 21.298 4.436 7.568 5.21 10.948 5.21 22.952 0 11.934-0.774 15.42-5.070 22.706-2.782 4.752-8.062 10.914-11.722 13.694-14.116 10.772-10.49 10.526-156.586 10.526h-134.408l33.056 33.338c18.166 18.342 34.57 36.294 36.506 39.886 2.464 4.682 3.486 10.632 3.486 20.664 0.036 11.97-0.704 15.384-5.034 22.706-11.934 20.348-35.274 28.796-57.804 21.016z" />
<glyph unicode="&#xe907;" glyph-name="back-round" d="M84.52 830.768c-27.099 0-49.067-21.968-49.067-49.067v-141.961c0-27.099 21.968-49.067 49.067-49.067h141.961c26.802 0.392 48.378 22.208 48.378 49.067s-21.576 48.675-48.341 49.067h-92.931v92.894c0 27.099-21.968 49.067-49.067 49.067v0zM497.881 919.191c-185.621 0-347.785-103.423-430.994-255.939-3.758-6.775-5.968-14.857-5.968-23.455 0-18.514 10.255-34.634 25.394-42.989l0.252-0.126c6.789-3.776 14.889-5.998 23.509-5.998 18.476 0 34.565 10.211 42.935 25.298l0.126 0.251c66.541 121.962 195.534 204.826 344.744 204.826 217.395 0 392.533-175.189 392.533-392.533 0-217.34-175.167-392.533-392.533-392.533-119.626 0-195.21 34.497-274.339 111.806-8.832 8.613-20.918 13.926-34.244 13.926-13.771 0-26.218-5.673-35.129-14.81l-0.011-0.011c-8.613-8.832-13.926-20.918-13.926-34.244 0-13.771 5.673-26.218 14.81-35.129l0.011-0.011c92.683-90.552 202.188-139.661 342.826-139.661 270.408 0 490.667 220.284 490.667 490.667 0 270.378-220.235 490.667-490.667 490.667z" />
<glyph unicode="&#xe908;" glyph-name="biology" d="M921.073 232.339v57.798c13.357 4.186 25.254 11.533 34.88 21.171 15.558 15.597 25.178 37.031 25.178 60.726 0 23.818-9.619 45.199-25.178 60.779-15.533 15.58-37.030 25.237-60.781 25.237-22.381 0-42.675-8.692-57.971-22.678-16.666 9.639-33.421 19.278-50.086 29.005 1.293 5.976 2.048 12.198 2.048 18.543 0 23.694-9.619 45.233-25.146 60.744-9.658 9.621-21.542 16.912-34.861 21.136v57.869c13.318 4.206 25.203 11.585 34.861 21.171 15.526 15.58 25.146 37.066 25.146 60.761 0 23.765-9.619 45.199-25.146 60.744-15.603 15.58-37.069 25.202-60.781 25.202-22.381 0-42.726-8.623-58.022-22.661-16.666 9.64-33.388 19.296-50.090 28.918 1.315 6.063 2.086 12.233 2.086 18.612 0 23.695-9.604 45.199-25.236 60.779-15.51 15.528-37.013 25.149-60.707 25.149-23.729 0-45.267-9.622-60.76-25.149-15.562-15.58-25.166-37.084-25.166-60.779 0-6.397 0.719-12.653 2.033-18.612l-50.087-28.918c-15.282 14.038-35.612 22.661-58.008 22.661-23.694 0-45.215-9.622-60.76-25.202-15.545-15.546-25.201-36.979-25.201-60.744 0-23.695 9.656-45.181 25.201-60.761 9.656-9.587 21.591-17 34.91-21.171-0.070-19.313-0.070-38.539-0.070-57.8-13.302-4.188-25.184-11.585-34.84-21.206-15.545-15.51-25.201-37.050-25.201-60.744 0-6.415 0.806-12.636 2.086-18.63l-50.052-28.918c-15.317 13.986-35.664 22.678-58.044 22.678-23.711 0-45.197-9.657-60.742-25.237-15.58-15.58-25.183-36.961-25.183-60.779 0-23.695 9.604-45.128 25.183-60.726 9.622-9.638 21.521-16.986 34.822-21.171v-57.798c-13.301-4.173-25.201-11.514-34.822-21.12-15.58-15.597-25.183-37.082-25.183-60.832 0-23.712 9.604-45.216 25.183-60.781 15.545-15.546 37.031-25.184 60.742-25.184 22.38 0 42.726 8.71 58.044 22.682l50.052-28.922c-1.279-5.99-2.086-12.23-2.086-18.611 0-23.712 9.656-45.229 25.201-60.813 15.545-15.494 37.066-25.203 60.76-25.203 23.747 0 45.25 9.709 60.777 25.203 15.58 15.584 25.166 37.101 25.166 60.813 0 6.381-0.718 12.602-2.033 18.56 16.684 9.677 33.368 19.315 50.052 28.973 15.334-13.971 35.612-22.682 58.026-22.682 22.362 0 42.726 8.71 57.956 22.682 16.719-9.658 33.438-19.296 50.142-28.973-1.352-5.958-2.070-12.179-2.070-18.56 0-23.712 9.642-45.229 25.13-60.813 15.565-15.494 37.12-25.203 60.813-25.203 23.712 0 45.178 9.709 60.781 25.203 15.526 15.584 25.146 37.101 25.146 60.813 0 6.381-0.755 12.621-2.048 18.611l50.086 28.922c15.283-13.971 35.59-22.682 57.971-22.682 23.75 0 45.248 9.638 60.781 25.184 15.558 15.565 25.178 37.069 25.178 60.781 0 23.75-9.619 45.235-25.178 60.832-9.626 9.606-21.523 16.947-34.88 21.12zM834.449 211.219c-15.584-15.597-25.203-37.082-25.203-60.832 0-6.394 0.736-12.563 2.067-18.592l-50.048-28.934c-15.334 14.016-35.699 22.643-58.029 22.643-22.362 0-42.675-8.608-58.010-22.573-31.648 18.24-15.546 8.902-50.102 28.864 1.315 6.029 2.086 12.198 2.086 18.592 0 23.75-9.604 45.235-25.236 60.832-9.603 9.606-21.538 16.947-34.752 21.12v57.798c13.214 4.186 25.149 11.533 34.752 21.171 15.633 15.597 25.236 37.031 25.236 60.726 0 6.432-0.771 12.619-2.086 18.648 16.719 9.639 33.418 19.26 50.102 28.917 15.334-14.020 35.648-22.678 58.010-22.678 22.33 0 42.637 8.658 57.958 22.591 31.616-18.209 15.616-8.92 50.118-28.829-1.331-6.029-2.067-12.216-2.067-18.648 0-23.695 9.619-45.128 25.203-60.726 9.568-9.638 21.485-16.986 34.803-21.171v-57.798c-13.318-4.173-25.235-11.514-34.803-21.12zM450.507 211.219c-15.562-15.597-25.166-37.082-25.166-60.832 0-6.394 0.719-12.563 2.033-18.592-34.49-19.962-18.489-10.624-50.175-28.864-15.247 13.965-35.524 22.573-57.921 22.573-22.38 0-42.708-8.627-57.973-22.643l-50.104 28.934c1.279 6.029 2.051 12.198 2.051 18.592 0 23.75-9.622 45.235-25.132 60.832-9.656 9.606-21.556 16.947-34.875 21.12v57.798c13.319 4.186 25.219 11.533 34.875 21.171 15.51 15.597 25.132 37.031 25.132 60.726 0 6.432-0.771 12.618-2.051 18.682l50.104 28.883c15.265-13.951 35.594-22.678 57.973-22.678 22.397 0 42.674 8.658 57.921 22.678 16.754-9.657 33.473-19.278 50.175-28.917-1.315-6.029-2.033-12.216-2.033-18.648 0-23.695 9.604-45.128 25.166-60.726 9.639-9.638 21.539-16.986 34.822-21.171v-57.798c-13.284-4.173-25.183-11.514-34.822-21.12zM345.181 564.869c0 19.261-0.017 38.486-0.017 57.8 13.336 4.154 25.254 11.585 34.892 21.171 15.58 15.58 25.166 37.066 25.166 60.761 0 6.397-0.753 12.601-2.033 18.63l50.052 28.9c15.334-14.020 35.612-22.678 58.026-22.678 22.362 0 42.674 8.64 57.939 22.625 34.507-19.926 18.209-10.445 50.159-28.847-1.352-6.029-2.070-12.233-2.070-18.63 0-23.695 9.642-45.181 25.13-60.761 9.638-9.587 21.542-16.965 34.893-21.171v-57.817c-13.35-4.276-25.254-11.567-34.893-21.188-15.488-15.51-25.13-37.050-25.13-60.744 0-6.344 0.719-12.566 2.070-18.543-16.704-9.727-33.423-19.366-50.142-29.005-15.282 13.986-35.594 22.678-57.956 22.678-22.414 0-42.691-8.692-58.026-22.678-16.684 9.639-33.368 19.278-50.052 29.005 1.315 5.976 2.033 12.198 2.033 18.543 0 23.694-9.586 45.233-25.166 60.744-9.621 9.621-21.556 17.018-34.875 21.206zM535.364 347.972c-6.151-6.186-14.721-10.025-24.097-10.025-9.393 0-17.981 3.839-24.115 10.025-6.204 6.152-9.971 14.652-9.971 24.063 0 9.446 3.768 17.964 9.971 24.133 6.134 6.099 14.721 9.972 24.115 9.972 9.376 0 17.946-3.873 24.097-9.972 6.169-6.169 9.989-14.687 9.989-24.133 0-9.411-3.82-17.911-9.989-24.063zM895.173 406.14c9.414 0 17.965-3.873 24.115-9.972 6.189-6.169 9.971-14.687 9.971-24.133 0-9.411-3.782-17.911-9.971-24.063-6.15-6.186-14.701-10.025-24.115-10.025-9.427 0-17.926 3.839-24.134 10.025-6.15 6.152-9.952 14.652-9.952 24.063 0 9.446 3.802 17.964 9.952 24.133 6.208 6.099 14.707 9.972 24.134 9.972zM727.281 458.787c-6.080-6.152-14.688-9.972-24.045-9.972-9.427 0-17.907 3.821-24.128 9.972-6.189 6.204-9.99 14.687-9.99 24.133 0 9.359 3.802 17.911 9.99 24.097 6.221 6.152 14.701 9.919 24.128 9.919 9.357 0 17.965-3.768 24.045-9.919 6.189-6.186 9.99-14.739 9.99-24.097 0-9.446-3.802-17.929-9.99-24.133zM703.237 738.706c9.357 0 17.965-3.873 24.045-10.007 6.189-6.186 9.99-14.687 9.99-24.098 0-9.393-3.802-17.964-9.99-24.097-6.080-6.17-14.688-9.972-24.045-9.972-9.427 0-17.907 3.803-24.128 9.972-6.189 6.134-9.99 14.704-9.99 24.097 0 9.411 3.802 17.912 9.99 24.098 6.221 6.134 14.701 10.007 24.128 10.007zM487.152 839.531c6.134 6.116 14.721 9.937 24.115 9.937 9.376 0 17.946-3.821 24.097-9.937 6.169-6.151 9.989-14.669 9.989-24.115 0-9.428-3.82-17.946-9.989-24.063-6.151-6.257-14.721-10.024-24.097-10.024-9.393 0-17.981 3.768-24.115 10.024-6.204 6.116-9.971 14.634-9.971 24.063 0 9.446 3.768 17.964 9.971 24.115zM295.147 728.699c6.221 6.134 14.703 10.007 24.132 10.007 9.411 0 17.946-3.873 24.115-10.007 6.186-6.186 9.972-14.687 9.972-24.098 0-9.393-3.786-17.964-9.972-24.097-6.169-6.17-14.703-9.972-24.115-9.972-9.428 0-17.91 3.803-24.132 9.972-6.099 6.134-9.955 14.704-9.955 24.097 0 9.411 3.855 17.912 9.955 24.098zM295.147 507.017c6.221 6.152 14.703 9.919 24.132 9.919 9.411 0 17.946-3.768 24.115-9.919 6.186-6.186 9.972-14.739 9.972-24.097 0-9.446-3.786-17.929-9.972-24.133-6.169-6.152-14.703-9.972-24.115-9.972-9.428 0-17.91 3.821-24.132 9.972-6.099 6.204-9.955 14.687-9.955 24.133 0 9.359 3.855 17.911 9.955 24.097zM103.211 396.168c6.186 6.099 14.704 9.972 24.097 9.972 9.428 0 17.964-3.873 24.097-9.972 6.151-6.169 9.989-14.687 9.989-24.133 0-9.411-3.838-17.911-9.989-24.063-6.134-6.186-14.669-10.025-24.097-10.025-9.393 0-17.911 3.839-24.097 10.025-6.169 6.152-9.954 14.652-9.954 24.063 0 9.446 3.785 17.964 9.954 24.133zM127.308 116.301c-9.393 0-17.911 3.821-24.097 10.010-6.169 6.15-9.954 14.682-9.954 24.077 0 9.485 3.785 17.946 9.954 24.115 6.186 6.189 14.704 10.010 24.097 10.010 9.428 0 17.964-3.821 24.097-10.010 6.151-6.17 9.989-14.63 9.989-24.115 0-9.395-3.838-17.926-9.989-24.077-6.134-6.189-14.669-10.010-24.097-10.010zM343.393 15.456c-6.169-6.131-14.703-9.971-24.115-9.971-9.428 0-17.91 3.84-24.132 9.971-6.099 6.15-9.955 14.707-9.955 24.115 0 9.434 3.855 17.933 9.955 24.083 6.221 6.202 14.703 10.003 24.132 10.003 9.411 0 17.946-3.802 24.115-10.003 6.186-6.15 9.972-14.65 9.972-24.083 0-9.408-3.786-17.965-9.972-24.115zM511.267 116.301c-9.393 0-17.981 3.821-24.115 10.010-6.204 6.15-9.971 14.682-9.971 24.077 0 9.485 3.768 17.946 9.971 24.115 6.134 6.189 14.721 10.010 24.115 10.010 9.376 0 17.946-3.821 24.097-10.010 6.169-6.17 9.989-14.63 9.989-24.115 0-9.395-3.82-17.926-9.989-24.077-6.151-6.189-14.721-10.010-24.097-10.010zM727.281 15.456c-6.080-6.131-14.688-9.971-24.045-9.971-9.427 0-17.907 3.84-24.128 9.971-6.189 6.15-9.99 14.707-9.99 24.115 0 9.434 3.802 17.933 9.99 24.083 6.221 6.202 14.701 10.003 24.128 10.003 9.357 0 17.965-3.802 24.045-10.003 6.189-6.15 9.99-14.65 9.99-24.083 0-9.408-3.802-17.965-9.99-24.115zM919.288 126.31c-6.15-6.189-14.701-10.010-24.115-10.010-9.427 0-17.926 3.821-24.134 10.010-6.15 6.15-9.952 14.682-9.952 24.077 0 9.485 3.802 17.946 9.952 24.115 6.208 6.189 14.707 10.010 24.134 10.010 9.414 0 17.965-3.821 24.115-10.010 6.189-6.17 9.971-14.63 9.971-24.115 0-9.395-3.782-17.926-9.971-24.077z" />
<glyph unicode="&#xe909;" glyph-name="block" d="M478.506 905.263c-169.687-11.485-322.167-114.035-396.948-266.883-22.675-46.308-37.557-94.243-45.496-146.717-4.764-31.315-4.764-98.674 0-129.989 15.694-103.4 59.382-193.58 128.917-266.144 75.593-78.879 171.203-127.994 282.025-144.798 31.315-4.764 98.674-4.764 129.989 0 110.527 16.766 206.543 66.030 281.692 144.427 69.757 72.824 113.556 163.188 129.25 266.515 4.764 31.315 4.764 98.674 0 129.989-21.825 143.726-100.482 265.332-221.054 341.775-40.586 25.701-104.323 51.849-150.485 61.707-42.984 9.157-95.312 12.998-137.893 10.118zM576.996 827.564c82.72-14.032 155.95-50.666 215.995-108.053 63.702-60.933 105.211-140.18 120.204-229.659 4.913-29.174 4.913-97.196 0-126.37-30.135-179.732-170.499-316.442-348.607-339.523-185.679-24.077-362.861 81.391-431.66 256.949-18.317 46.752-25.628 88.223-25.628 145.759 0 46.346 2.436 66.655 12.63 105.541 28.73 109.531 107.609 206.172 209.978 257.355 45.017 22.491 87.335 34.677 144.687 41.62 15.361 1.846 84.42-0.59 102.404-3.619z" />
<glyph unicode="&#xe90a;" glyph-name="block-ban" d="M481.016 894.184c-165.624-10.452-315.788-110.854-388.71-260.016-23.597-48.198-36.681-90.136-44.192-141.775-4.695-31.798-5.571-88.696-1.879-119.241 15.21-126.565 80.183-241.301 180.335-318.166 39.623-30.483 90.511-57.399 138.020-73.11 50.826-16.776 90.761-23.035 147.409-23.035 76.364 0 138.71 14.271 205.622 47.070 95.456 46.758 168.379 119.68 215.137 215.137 32.737 66.788 47.008 129.069 47.133 205.622 0.063 76.427-14.396 138.584-48.198 207.501-37.243 75.802-93.141 138.834-164.309 185.405-22.846 14.96-68.103 37.681-94.080 47.259-57.963 21.282-128.631 31.359-192.289 27.354M562.327 799.416c57.9-8.263 110.416-28.168 158.614-60.215 12.142-8.075 22.033-15.147 22.033-15.711 0-0.627-118.74-119.805-263.835-264.898l-263.772-263.772-3.317 4.506c-31.236 42.751-51.891 85.754-64.409 134.265-7.825 30.045-11.205 58.714-11.142 93.642 0.063 59.903 11.58 110.353 37.494 163.871 54.145 111.98 161.368 190.037 286.18 208.251 23.536 3.443 78.243 3.443 102.155 0.063M826.161 633.228c40.749-61.718 61.404-131.449 61.404-207.562 0-100.777-38.371-193.354-109.791-264.774-48.698-48.637-105.784-81.248-172.696-98.586-29.795-7.699-58.714-11.205-93.078-11.205-61.656 0-117.302 13.208-170.883 40.499-19.779 10.077-47.884 27.793-55.959 35.178l-4.256 4.007 263.334 263.334c219.643 219.643 263.772 262.958 266.089 261.080 1.501-1.252 8.639-11.142 15.837-21.97" />
<glyph unicode="&#xe90b;" glyph-name="browser" d="M478.506 901.978c-169.687-11.485-322.167-114.035-396.948-266.883-22.675-46.308-37.557-94.243-45.496-146.717-4.764-31.315-4.764-98.674 0-129.989 15.694-103.4 59.382-193.58 128.917-266.144 75.593-78.879 171.203-127.994 282.025-144.798 31.315-4.764 98.674-4.764 129.989 0 110.527 16.766 206.543 66.030 281.692 144.427 35.822 37.408 61.596 74.486 84.715 121.755 54.618 111.856 63.553 235.717 25.739 356.435-32.831 104.694-106.429 199.34-202.258 260.089-40.586 25.701-104.323 51.849-150.485 61.707-42.984 9.157-95.312 12.998-137.893 10.118zM576.996 824.279c104.434-17.727 197.199-73.82 259.315-156.835 12.963-17.356 32.238-47.675 35.229-55.468 1.256-3.286-10.413-3.47-227.851-3.47-139.885 0-235.863-0.777-246.352-1.995-31.797-3.619-55.874-15.361-79.101-38.553-16.395-16.36-26.811-33.050-34.271-54.951l-5.354-15.77-0.996-202.518-0.961-202.518-13.293 10.045c-19.424 14.698-48.636 43.279-65.291 63.851-46.679 57.72-74.927 120.499-87.262 194.097-4.913 29.174-4.913 97.196 0 126.37 17.762 105.95 73.747 198.972 157.133 261.050 62.63 46.603 123.306 70.166 206.654 80.284 15.361 1.846 84.42-0.59 102.404-3.619zM907.581 514.485c2.328-10.562 5.319-25.85 6.648-33.973 2.734-16.804 3.324-89.774 0.885-106.873l-1.624-11.301h-561.021v60.784c0 66.436 0.517 70.201 11.634 85.343 6.905 9.344 18.685 18.355 29.063 22.158 6.353 2.328 47.97 2.807 258.871 2.918l251.262 0.149 4.285-19.202zM444.606 479.992c-21.048-12.741-24.927-37.668-8.751-56.096 11.225-12.776 28.14-15.916 44.129-8.161 20.347 9.861 26.329 37.63 12.040 55.836-10.118 12.814-33.31 16.95-47.415 8.421zM571.122 480.769c-26.256-14.070-26.183-51.922 0.073-65.326 24.705-12.592 53.622 4.948 53.622 32.609 0 14.181-7.828 26.922-20.642 33.605-7.606 3.987-24.854 3.546-33.050-0.885zM693.543 479.034c-8.567-5.538-18.095-20.829-18.057-28.952 0.038-13.886 10.895-30.763 23.043-35.857 28.584-11.929 59.566 16.1 49.927 45.239-7.46 22.637-35.045 32.46-54.913 19.573zM892.994 283.053c-2.953-9.785-13.442-33.015-22.897-50.704-53.879-101.11-148.639-175.228-259.35-202.924-79.396-19.868-167.657-14.736-243.028 14.181l-15.253 5.836v238.042h541.892l-1.367-4.431z" />
<glyph unicode="&#xe90c;" glyph-name="brush" d="M803.638 842.779c-24.151-4.489-46.379-15.174-66.506-31.988-39.148-32.701-387.887-339.406-396.115-348.382-19.806-21.622-33.057-51.225-35.444-79.187l-1.212-14.498h-8.727c-4.844 0-16.030-1.212-24.899-2.636-60.024-9.76-110.393-45.453-138.39-98.067-7.659-14.319-80.077-204.684-85.315-224.169-7.088-26.396 5.664-57.565 29.922-73.061 16.955-10.829 16.636-10.829 136.183-10.046 105.156 0.676 110.498 0.89 125.034 4.774 42.176 11.328 70.425 28.034 100.205 59.204 25.149 26.325 40.502 54.038 50.654 91.335 3.312 12.112 7.694 41.358 7.766 51.474 0 2.457 3.063 3.277 15.673 4.168 26.61 1.923 51.759 11.506 75.019 28.64 15.247 11.256 359.675 403.952 371.251 423.331 20.020 33.414 25.647 76.907 14.925 115.202-12.004 42.959-45.169 79.508-87.701 96.678-23.403 9.44-55.285 12.254-82.322 7.231zM850.872 746.707c11.541-4.31 24.188-16.457 29.209-28.069 4.844-11.149 4.096-31.668-1.531-42.461-2.529-4.881-56.782-68.537-120.509-141.455-63.763-72.919-117.339-134.33-119.12-136.467-3.17-3.811-4.345-2.778-56.532 49.302-29.316 29.246-53.29 53.719-53.29 54.395 0 1.317 263.566 232.148 272.757 238.881 13.857 10.116 31.882 12.289 49.015 5.878zM555.174 302.679c-27.428-31.347-35.337-36.619-54.786-36.512-15.247 0.072-23.333 5.664-57.423 39.47-38.365 38.043-41.393 42.283-42.64 59.63-1.461 20.198 3.598 28.498 32.344 53.504l23.261 20.233 116.591-116.519-17.347-19.806zM322.884 270.834c34.197-8.906 63.229-38.293 73.986-74.877 3.883-13.179 3.953-41.393 0.142-56.033-7.338-28.249-28.817-56.924-52.507-70.103-24.687-13.785-31.062-14.569-116.020-14.569-41.57 0-75.555 0.713-75.555 1.639 0 3.312 58.562 157.413 63.586 167.352 2.886 5.699 10.223 15.317 16.314 21.41 23.225 23.225 59.096 33.235 90.051 25.185z" />
<glyph unicode="&#xe90d;" glyph-name="bullet" d="M91.75 753.759c-1.066-0.404-4.372-1.286-7.31-1.946-2.938-0.624-8.596-4.004-12.526-7.494-20.572-18.036-15.466-48.638 10.028-60.43 11.534-5.326 64.91-5.326 76.408 0 14.474 6.686 22.556 18.698 22.556 33.502 0 9.846-2.902 17.266-9.44 24.172-10.176 10.764-14.474 11.902-47.388 12.454-16.714 0.258-31.262 0.146-32.326-0.258zM336.664 753.685c-1.102-0.368-4.372-1.212-7.31-1.874-2.938-0.624-8.596-4.004-12.564-7.494-20.534-18.036-15.428-48.638 10.066-60.43 7.53-3.49 19.948-3.636 307.582-3.636 287.672 0 300.088 0.146 307.62 3.636 14.474 6.686 22.518 18.698 22.518 33.502 0 13.85-7.384 25.678-20.572 32.988-5.4 2.976-30.344 3.27-305.636 3.6-164.868 0.184-300.64 0.074-301.706-0.294zM91.75 459.879c-1.066-0.404-4.372-1.286-7.31-1.946-2.938-0.624-8.596-4.004-12.526-7.494-20.572-18.036-15.466-48.638 10.028-60.43 11.534-5.326 64.91-5.326 76.408 0 14.474 6.686 22.556 18.698 22.556 33.502 0 9.846-2.902 17.266-9.44 24.172-10.176 10.764-14.474 11.902-47.388 12.454-16.714 0.258-31.262 0.146-32.326-0.258zM336.664 459.805c-1.102-0.368-4.372-1.212-7.31-1.874-2.938-0.624-8.596-4.004-12.564-7.494-20.534-18.036-15.428-48.638 10.066-60.43 7.53-3.49 19.948-3.636 307.582-3.636 287.672 0 300.088 0.146 307.62 3.636 14.474 6.686 22.518 18.698 22.518 33.502 0 13.85-7.384 25.678-20.572 32.988-5.4 2.976-30.344 3.27-305.636 3.6-164.868 0.184-300.64 0.074-301.706-0.294zM91.75 165.997c-1.066-0.404-4.372-1.286-7.31-1.946-2.938-0.624-8.596-4.004-12.526-7.494-20.572-18.036-15.466-48.638 10.028-60.43 11.534-5.326 64.91-5.326 76.408 0 14.474 6.686 22.556 18.698 22.556 33.502 0 9.846-2.902 17.266-9.44 24.172-10.176 10.764-14.474 11.902-47.388 12.454-16.714 0.258-31.262 0.146-32.326-0.258zM336.664 165.923c-1.102-0.368-4.372-1.212-7.31-1.874-2.938-0.624-8.596-4.004-12.564-7.494-20.534-18.036-15.428-48.638 10.066-60.43 7.53-3.49 19.948-3.636 307.582-3.636 287.672 0 300.088 0.146 307.62 3.636 14.474 6.686 22.518 18.698 22.518 33.502 0 13.85-7.384 25.678-20.572 32.988-5.4 2.976-30.344 3.27-305.636 3.6-164.868 0.184-300.64 0.074-301.706-0.294z" />
<glyph unicode="&#xe90e;" glyph-name="calculator" d="M648.69 166.254c-17.976 0-32.55-14.574-32.55-32.55v0c0-17.976 14.574-32.55 32.55-32.55v0h146.481c17.976 0 32.55 14.574 32.55 32.55v0c0 17.976-14.574 32.55-32.55 32.55v0zM648.69 312.735c-17.976 0-32.55-14.574-32.55-32.55v0c0-17.976 14.574-32.55 32.55-32.55v0h146.481c17.976 0 32.55 14.574 32.55 32.55v0c0 17.976-14.574 32.55-32.55 32.55v0zM72.551 459.217c-17.976 0-32.55-14.574-32.55-32.55v0c0-17.976 14.574-32.55 32.55-32.55v0h878.893c17.976 0 32.55 14.574 32.55 32.55v0c0 17.976-14.574 32.55-32.55 32.55v0zM187.244 898.666c-80.917 0-147.244-66.333-147.244-147.244v-649.506c0-80.918 66.334-147.244 147.244-147.244h649.506c80.877 0 147.244 66.312 147.244 147.244v649.506c0 80.929-66.366 147.244-147.244 147.244zM187.244 833.561h649.506c45.683 0 82.144-36.416 82.144-82.144v-649.506c0-45.732-36.459-82.144-82.144-82.144h-649.506c-45.747 0-82.144 36.393-82.144 82.144v649.506c0 45.745 36.397 82.144 82.144 82.144zM658.481 678.941c-17.976 0-32.55-14.574-32.55-32.55v0c0-17.976 14.574-32.55 32.55-32.55v0h146.481c17.976 0 32.55 14.574 32.55 32.55v0c0 17.976-14.574 32.55-32.55 32.55v0zM219.037 678.941c-17.976 0-32.55-14.574-32.55-32.55v0c0-17.976 14.574-32.55 32.55-32.55v0h146.481c17.976 0 32.55 14.574 32.55 32.55v0c0 17.976-14.574 32.55-32.55 32.55v0zM292.276 752.184c-17.976 0-32.55-14.574-32.55-32.55v0-146.481c0-17.976 14.574-32.55 32.55-32.55v0c17.976 0 32.55 14.574 32.55 32.55v0 146.481c0 17.976-14.574 32.55-32.55 32.55v0zM240.523 291.246c-8.99-0.001-17.126-3.645-23.015-9.534v0c-5.888-5.889-9.529-14.026-9.529-23.015s3.641-17.126 9.529-23.015l103.505-103.505c5.889-5.888 14.026-9.529 23.015-9.529s17.126 3.641 23.015 9.529v0c5.888 5.889 9.529 14.026 9.529 23.015s-3.641 17.126-9.529 23.015l-103.505 103.505c-5.889 5.891-14.026 9.533-23.015 9.534v0zM344.028 291.246c-8.99-0.001-17.126-3.645-23.015-9.534l-103.505-103.505c-5.888-5.889-9.529-14.026-9.529-23.015s3.641-17.126 9.529-23.015v0c5.889-5.888 14.026-9.529 23.015-9.529s17.126 3.641 23.015 9.529l103.505 103.505c5.888 5.889 9.529 14.026 9.529 23.015s-3.641 17.126-9.529 23.015v0c-5.889 5.891-14.026 9.533-23.015 9.534v0zM512 898.666c-17.976 0-32.55-14.574-32.55-32.55v0-878.893c0-17.976 14.574-32.55 32.55-32.55v0c17.976 0 32.55 14.574 32.55 32.55v0 878.893c0 17.976-14.574 32.55-32.55 32.55v0z" />
<glyph unicode="&#xe90f;" glyph-name="caret" d="M128 693.334c-0.070 0-0.153 0-0.235 0-26.451 0-50.404-10.698-67.767-28.003l0.003 0.003c-17.443-17.384-28.236-41.432-28.236-68s10.793-50.616 28.233-67.997l384.003-384.003c17.385-17.441 41.432-28.232 68-28.232s50.615 10.791 67.997 28.229l384.003 384.003c17.443 17.384 28.236 41.432 28.236 68s-10.793 50.616-28.233 67.997l-0.003 0.003c-17.384 17.443-41.432 28.236-68 28.236s-50.616-10.793-67.997-28.233l-316.003-316.003-316 316c-17.361 17.302-41.313 28-67.765 28-0.083 0-0.166 0-0.248 0h0.013z" />
<glyph unicode="&#xe910;" glyph-name="caret-double-down" d="M88.5 478.667c-11.695-0.702-22.027-6.014-29.298-14.126l-0.035-0.040c-6.73-7.51-10.845-17.486-10.845-28.422 0-12.675 5.527-24.059 14.302-31.874l0.043-0.037 426.667-379.167c7.498-6.682 17.439-10.764 28.333-10.764s20.835 4.083 28.376 10.802l-0.042-0.037 426.667 379.167c8.818 7.852 14.345 19.236 14.345 31.911 0 10.936-4.115 20.912-10.88 28.463l0.036-0.040c-7.848 8.769-19.201 14.262-31.837 14.262-10.893 0-20.832-4.082-28.372-10.799l0.043 0.037-398.333-354-398.333 354c-7.494 6.668-17.424 10.742-28.306 10.742-0.889 0-1.772-0.027-2.647-0.081l0.12 0.006zM88.5 810.667c-11.717-0.748-22.050-6.118-29.295-14.289l-0.039-0.044c-6.68-7.497-10.762-17.437-10.762-28.329 0-12.636 5.493-23.989 14.221-31.802l0.041-0.036 426.667-379.333c7.498-6.682 17.439-10.764 28.333-10.764s20.835 4.083 28.376 10.802l-0.042-0.037 426.667 379.333c8.769 7.848 14.262 19.201 14.262 31.837 0 10.893-4.082 20.832-10.8 28.372l0.037-0.043c-7.848 8.769-19.201 14.262-31.837 14.262-10.893 0-20.832-4.082-28.372-10.799l0.043 0.037-398.333-354-398.333 354c-7.519 6.762-17.517 10.898-28.482 10.898-0.827 0-1.649-0.024-2.465-0.070l0.113 0.005z" />
<glyph unicode="&#xe911;" glyph-name="change" d="M156.078 892.498c-42.060-5.735-81.126-33.98-99.775-72.215-13.816-28.351-12.661 4.473-13.347-386.655-0.433-257.951 0-355.922 1.623-366.491 6.782-44.368 37.839-83.831 79.755-101.435 25.106-10.533 10.1-10.136 387.665-10.136 391.777 0 363.858-1.046 396.034 14.681 14.826 7.214 20.886 11.615 33.98 24.709s17.495 19.154 24.709 33.98c15.728 32.177 14.681 4.256 14.681 396.034 0 388.315 0.829 363.966-13.382 393.437-13.13 27.234-32.429 47.074-59.699 61.395-27.992 14.681 5.916 13.455-388.639 13.816-194.139 0.181-357.761-0.324-363.606-1.118zM875.209 815.918c10.533-5.627 22.112-17.206 27.739-27.739 4.112-7.685 4.437-10.93 5.014-47.218l0.648-38.958h-792.934l0.036 35.098c0 19.335 0.866 38.309 1.948 42.203 4.473 16.016 23.375 35.315 39.102 39.896 3.607 1.046 149.662 1.623 358.122 1.443l352.063-0.324 8.26-4.401zM907.854 349.471l-0.505-279.449-4.401-8.26c-5.627-10.533-17.206-22.112-27.739-27.739l-8.26-4.401h-709.896l-8.26 4.401c-10.533 5.627-22.112 17.206-27.739 27.739l-4.401 8.26-0.505 279.449-0.505 279.414h792.717l-0.505-279.414zM362.915 508.727c-1.082-0.397-4.545-1.263-7.719-1.948-7.755-1.695-111.318-104.32-116.548-115.466-1.984-4.256-3.607-10.749-3.607-14.429 0-14.934 11.94-30.517 26.44-34.557 17.278-4.798 24.529-1.443 48.986 22.617l20.705 20.381 0.036-103.779c0.036-96.781 0.289-104.32 3.571-111.499 4.329-9.307 10.388-15.15 19.911-19.117 19.046-7.972 41.987 3.354 47.579 23.519 1.226 4.509 1.984 44.873 1.984 109.009v101.867l20.705-20.381c16.521-16.304 22.365-20.813 29.074-22.617 27.379-7.395 51.727 16.954 44.477 44.441-1.948 7.323-8.91 15.078-55.442 61.9-29.291 29.435-55.407 54.685-58.040 56.056-5.086 2.67-18.866 5.158-22.112 4.004zM647.63 507.863c-12.806-3.175-22.473-12.409-25.9-24.747-1.226-4.509-1.984-44.909-1.984-109.082v-101.94l-19.732 19.479c-10.858 10.714-21.896 20.561-24.529 21.931-6.637 3.391-24.782 3.066-31.743-0.577-11.651-6.096-20.237-19.984-20.164-32.682 0.108-13.022 6.457-20.886 59.88-74.056 53.17-52.882 59.88-58.256 72.83-58.256s19.659 5.375 72.83 58.256c53.422 53.17 59.772 61.034 59.88 74.056 0.072 12.698-8.513 26.585-20.164 32.682-7.034 3.643-25.178 3.968-31.743 0.505-2.633-1.371-13.671-11.219-24.529-21.86l-19.732-19.335v103.382c0 111.354 0.036 111.21-10.172 122.14-8.189 8.765-23.122 13.058-35.026 10.1z" />
<glyph unicode="&#xe912;" glyph-name="chat" d="M186.164 882.651c-74.055 0-134.996-60.94-134.996-134.996v-558.644c0-74.058 60.941-134.996 134.996-134.996h559.748l165.312-88.116c5.706-3.105 12.5-4.928 19.716-4.928 23.137 0 41.892 18.755 41.892 41.892 0 0.036 0 0.068 0 0.105v-0.004 744.692c0 74.055-60.939 134.996-134.996 134.996zM186.164 798.831h651.668c28.791 0 51.176-22.394 51.176-51.176v-674.864l-112.908 60.136c-5.699 3.091-12.478 4.908-19.679 4.908-0.027 0-0.058 0-0.085 0h-570.176c-28.782 0-51.176 22.385-51.176 51.176v558.644c0 28.781 22.394 51.176 51.176 51.176zM512 520.979c-15.484 0.004-31.005-5.725-42.584-17.304-23.044-23.042-23.042-62.13 0-85.172 23.047-23.045 62.122-23.067 85.172 0 14.914 14.91 16.544 35.436 12.148 55.104-0.416 11.519-4.907 21.918-12.067 29.867l0.039-0.043c-0.167 0.344-0.209 0.426-0.251 0.503l0.125-0.259c-0.035 0.030-0.072 0.071-0.113 0.111l-0.013 0.013c-1.797 1.78-4.649 1.193-6.628 2.7-7.305 6.17-16.62 10.171-26.838 10.913l-0.153 0.007c-3.182 0.497-5.616 3.559-8.836 3.56zM721.368 520.979c-15.483 0.003-30.892-5.739-42.464-17.304-23.049-23.035-23.046-62.133 0-85.172 23.030-23.020 62.142-23.020 85.172 0 13.951 13.947 16.564 32.945 13.624 51.544 0 0.037 0 0.080 0 0.123 0 12.802-5.102 24.409-13.388 32.901l0.008-0.008c-0.165 0.168-0.083 0.449-0.244 0.612 0.187-0.083 0.106-0.042 0.024-0.001l-0.268 0.125c-0.526 0.52-1.422 0.239-1.964 0.736-8.226 7.795-19.293 12.659-31.496 12.883l-0.044 0.001c-3.219 0.51-5.701 3.559-8.96 3.56zM302.508 520.979c-15.484 0.003-31.007-5.726-42.584-17.304-23.044-23.042-23.042-62.13 0-85.172s62.129-23.036 85.172 0c14.91 14.912 16.543 35.445 12.148 55.104-0.416 11.519-4.907 21.918-12.067 29.867l0.039-0.043c-0.166 0.349-0.203 0.431-0.245 0.512l0.125-0.264c-0.042 0.042-0.082 0.082-0.123 0.123l-0.001 0.001c-1.562 1.549-4.067 0.993-5.768 2.332-7.459 6.44-17.057 10.593-27.594 11.282l-0.138 0.006c-3.22 0.51-5.701 3.559-8.96 3.56z" />
<glyph unicode="&#xe913;" glyph-name="checkmark-list" d="M238.335 858.455c-9.19-0.001-17.507-3.725-23.525-9.744l-78.634-78.634-26.126 26.126c-6.013 5.982-14.307 9.682-23.46 9.682-9.216 0-17.564-3.751-23.589-9.802l-0.001-0.001c-6.018-6.019-9.743-14.335-9.743-23.525s3.72-17.507 9.743-23.525v0l49.651-49.52c6.020-6.016 14.337-9.743 23.525-9.743s17.507 3.718 23.525 9.743l102.161 102.161c6.018 6.019 9.743 14.335 9.743 23.525s-3.72 17.507-9.743 23.525v0c-6.019 6.020-14.335 9.743-23.525 9.744v0zM459.682 907.197c-18.372 0-33.27-14.898-33.27-33.27v0c0-18.372 14.898-33.27 33.27-33.27h301.933c18.372 0 33.27 14.898 33.27 33.27v0c0 18.372-14.898 33.27-33.27 33.27v0zM462.021 757.464c-18.372 0-33.27-14.898-33.27-33.27v0c0-18.372 14.898-33.27 33.27-33.27v0h499.232c18.372 0 33.27 14.898 33.27 33.27v0c0 18.372-14.898 33.27-33.27 33.27v0zM238.335 508.954c-9.19-0.001-17.507-3.725-23.525-9.744l-78.634-78.634-26.126 26.126c-6.013 5.982-14.307 9.682-23.46 9.682-9.216 0-17.564-3.751-23.589-9.802l-0.001-0.001c-6.018-6.019-9.743-14.335-9.743-23.525s3.72-17.507 9.743-23.525v0l49.651-49.52c6.020-6.016 14.337-9.743 23.525-9.743s17.507 3.718 23.525 9.743l102.161 102.161c6.018 6.019 9.743 14.335 9.743 23.525s-3.72 17.507-9.743 23.525v0c-6.019 6.020-14.335 9.743-23.525 9.744v0zM459.682 557.696c-18.372 0-33.27-14.898-33.27-33.27v0c0-18.372 14.898-33.27 33.27-33.27h301.933c18.372 0 33.27 14.898 33.27 33.27v0c0 18.372-14.898 33.27-33.27 33.27v0zM462.021 407.963c-18.372 0-33.27-14.898-33.27-33.27v0c0-18.372 14.898-33.27 33.27-33.27v0h499.232c18.372 0 33.27 14.898 33.27 33.27v0c0 18.372-14.898 33.27-33.27 33.27v0zM459.682 58.453c-18.372 0-33.27-14.898-33.27-33.27v0c0-18.372 14.898-33.27 33.27-33.27h501.702c18.372 0 33.27 14.898 33.27 33.27v0c0 18.372-14.898 33.27-33.27 33.27v0zM462.021 208.186c-18.372 0-33.27-14.898-33.27-33.27v0c0-18.372 14.898-33.27 33.27-33.27v0h499.232c18.372 0 33.27 14.898 33.27 33.27v0c0 18.372-14.898 33.27-33.27 33.27v0zM162.436 208.186c-73.136 0-133.099-59.956-133.099-133.099s59.962-133.099 133.099-133.099c73.136 0 133.099 59.956 133.099 133.099s-59.962 133.099-133.099 133.099zM162.436 141.643c37.172 0 66.549-29.373 66.549-66.549s-29.376-66.549-66.549-66.549c-37.172 0-66.549 29.376-66.549 66.549s29.376 66.549 66.549 66.549z" />
<glyph unicode="&#xe914;" glyph-name="chemistry" d="M424.096 199.773l0.017 0.055 0.087 0.429 0.086 0.331 50.441 188.764-189.56-50.597c-33.114-7.789-67.854-7.011-100.657 2.25-31.867 9.018-61.831 26.034-86.705 50.909-24.995 24.909-41.89 54.872-50.908 86.757-9.382 32.888-10.092 67.578-2.285 100.64 3.289 14.177 17.466 23.022 31.712 19.751 14.176-3.272 22.988-17.483 19.716-31.729-5.799-24.458-5.211-50.182 1.644-74.381 6.543-23.23 19.093-45.178 37.493-63.562 18.401-18.452 40.349-30.968 63.562-37.476 24.165-6.89 49.645-7.513 74.051-1.852l217.619 58.196 58.093 217.62c5.712 24.372 5.124 49.957-1.748 74.051-6.543 23.178-19.041 45.128-37.476 63.562-18.383 18.383-40.349 30.863-63.527 37.528-24.233 6.82-49.957 7.409-74.467 1.558-14.177-3.219-28.371 5.573-31.678 19.768-3.323 14.194 5.487 28.371 19.699 31.677 33.114 7.841 67.854 7.131 100.708-2.199 31.815-9.071 61.727-26.051 86.654-50.891 24.961-25.012 41.941-54.942 50.977-86.774 9.244-32.803 10.057-67.578 2.269-100.657v-0.069l-0.087-0.242-0.122-0.467-50.441-188.781 189.631 50.648c33.080 7.755 67.801 6.941 100.606-2.302 31.849-8.984 61.775-25.965 86.686-50.943 24.941-24.822 41.904-54.889 50.943-86.705 9.296-32.837 10.073-67.595 2.284-100.64-3.307-14.243-17.519-23.092-31.726-19.749-14.213 3.325-23.043 17.501-19.736 31.678 5.751 24.561 5.23 50.231-1.659 74.465-6.558 23.161-19.057 45.161-37.495 63.597-18.414 18.365-40.386 30.846-63.564 37.476-24.127 6.786-49.657 7.46-74.066 1.714l-217.585-58.11-58.144-217.623c-5.695-24.354-5.106-49.951 1.731-74.017 6.56-23.178 19.11-45.088 37.493-63.558 18.452-18.438 40.401-30.949 63.631-37.477 24.216-6.907 49.887-7.428 74.417-1.61 14.158 3.24 28.371-5.591 31.708-19.804 3.258-14.207-5.554-28.371-19.749-31.764-33.062-7.789-67.803-7.024-100.692 2.339-31.815 9.020-61.796 25.964-86.654 50.924-24.978 24.837-41.959 54.874-50.943 86.686-9.347 32.805-10.109 67.58-2.285 100.606zM832.66 405.276c10.367 10.282 27.128 10.282 37.477 0 10.318-10.334 10.318-27.090 0-37.406l-299.339-299.339c-10.385-10.318-27.072-10.318-37.44 0-10.299 10.349-10.299 27.11 0 37.44l299.304 299.306zM850.7 278.897c10.313 10.318 27.054 10.318 37.336 0 10.367-10.337 10.367-27.11 0-37.421l-190.875-190.893c-10.374-10.355-27.072-10.355-37.391 0-10.318 10.331-10.318 27.122 0 37.44l190.93 190.875zM706.365 423.244c10.318 10.334 27.005 10.334 37.391 0 10.3-10.317 10.3-27.073 0-37.39l-190.944-190.877c-10.299-10.367-27.072-10.367-37.424 0-10.316 10.232-10.316 27.072 0 37.324l190.977 190.943zM453.211 784.725c10.335 10.352 27.039 10.352 37.389 0 10.335-10.299 10.335-27.002 0-37.354l-299.287-299.356c-10.282-10.335-27.072-10.335-37.389 0-10.385 10.316-10.385 27.124 0 37.423l299.287 299.287zM471.196 658.399c10.282 10.352 27.055 10.352 37.389 0 10.316-10.368 10.316-27.090 0-37.441l-190.876-190.876c-10.352-10.316-27.107-10.316-37.441 0-10.299 10.368-10.299 27.003 0 37.389l190.928 190.928zM326.815 802.745c10.385 10.265 27.107 10.265 37.44 0 10.299-10.351 10.299-27.072 0-37.459l-190.893-190.858c-10.368-10.317-27.090-10.317-37.476 0-10.265 10.316-10.265 27.159 0 37.372l190.928 190.945z" />
<glyph unicode="&#xe915;" glyph-name="clip" d="M661.258 891.105c-39.85-5.598-72.552-19.22-105.466-43.932-20.17-15.172-377.476-373.532-392.366-393.528-21.192-28.478-34.216-53.226-45.412-86.458-32.738-97.088-17.496-198.436 42.666-283.308 13.694-19.326 49.742-55.408 68.786-68.892 115.852-81.88 266.060-79.1 375.468 6.9 8.272 6.512 66.25 63.224 128.876 126.024 121.976 122.398 118.668 118.562 118.668 137.676 0 17.426-9.892 33.408-25.874 41.856-10.068 5.316-30.908 5.632-40.482 0.598-3.626-1.866-56.852-53.472-118.28-114.62-61.464-61.146-116.802-114.972-122.998-119.582-90.4-67.554-212.904-57.45-290.068 23.902-34.358 36.188-53.19 77.902-58.366 129.298-5.21 51.818 9.962 106.346 41.538 149.47 15.56 21.192 363.64 369.52 380.538 380.784 24.676 16.44 54.036 24.148 84.064 22.072 21.826-1.514 33.864-4.822 53.508-14.75 28.83-14.538 56.57-46.784 65.898-76.6 8.342-26.684 8.378-59.528 0.106-85.93-8.942-28.654-5.562-24.924-198.824-218.466-130.178-130.354-181.68-180.764-187.98-183.968-11.616-5.914-31.118-6.126-43.546-0.422-19.044 8.66-30.238 26.332-30.238 47.594 0 23.902-5.914 17.002 142.922 166.156 74.172 74.348 136.304 138.028 138.064 141.478 4.998 9.998 5.808 25.028 1.9 35.272-7.322 19.186-23.938 30.872-44.004 30.942-21.72 0.106-17.706 3.556-152.848-131.27-68.012-67.836-131.128-131.728-140.282-141.9-28.902-32.28-39.99-59.95-39.99-99.728-0.036-27.81 3.344-42.524 15.172-66.674 7.604-15.454 11.264-20.312 27.634-36.61 14.504-14.398 22.424-20.594 33.936-26.614 47.348-24.748 104.692-22.354 148.308 6.196 9.856 6.442 58.928 54.422 196.394 191.924 155.63 155.736 184.778 185.764 193.614 199.316 23.868 36.576 34.71 66.532 39.216 108.424 7.674 71.356-22.812 147.11-78.114 194.142-51.536 43.792-115.816 62.59-182.138 53.226z" />
<glyph unicode="&#xe916;" glyph-name="copy-paste-select-add-plus" d="M148.512 897.487c-48.584-6.936-93.384-46.244-108.54-95.216l-4.832-15.584v-536.080l5.764-17.064c13.792-40.636 48.388-75.076 88.748-88.28 11.532-3.78 19.868-4.56 56.372-5.336l42.816-0.896 1.324-15.544c6.428-76.128 58.788-143.604 130.356-167.992 33.156-11.336 34.012-11.376 247.86-11.336 159.228 0 201.108 0.544 215.484 2.884 79.048 12.856 139.164 68.024 160.24 147.108 4.56 17.144 4.596 18.584 5.336 218.796 0.82 218.524 0.544 224.952-10.248 257.636-24.66 74.84-89.1 125.488-169.356 133.124l-14.844 1.404-0.896 41.844c-0.82 38.336-1.364 43.204-6.428 58.596-15.896 48.308-60.66 85.904-109.944 92.296-19.596 2.532-511.26 2.22-529.22-0.352zM681.396 816.059c13.248-6.156 23.14-16.092 29.336-29.336 4.48-9.66 4.868-13.092 4.868-46.168l0.040-35.764-160.512-0.7c-157.628-0.7-160.824-0.82-177.808-5.3-44.296-11.728-85.32-39.74-111.812-76.244-10.404-14.376-24.856-45.192-30.348-64.712-4.56-16.128-4.596-18.428-5.26-179.172l-0.664-162.848-35.724 0.936c-38.92 1.052-44.996 2.492-59.724 14.18-4.676 3.664-10.676 11.648-14.376 19.052l-6.352 12.7 0.040 256.82v256.78l4.868 10.44c6.156 13.248 16.092 23.18 29.336 29.336l10.44 4.868h513.208l10.44-4.868zM824.296 622.551c29.336-7.636 59.684-31.672 73.672-58.4 13.248-25.284 12.896-18.896 12.896-239.792 0-221.016 0.352-214.628-12.972-239.792-8.728-16.48-32.26-40.052-48.428-48.504-25.752-13.48-16.52-12.972-239.792-12.972-222.652 0-213.224-0.508-239.484 12.7-17.104 8.608-41.96 33.7-50.18 50.684-12 24.74-11.572 16.168-11.608 237.924-0.040 193.080 0.196 205.508 3.82 218.64 9.936 35.764 44.1 69.424 80.724 79.516 7.948 2.18 51.856 2.768 214.704 2.92 175.084 0.156 206.484-0.272 216.652-2.92z" />
<glyph unicode="&#xe917;" glyph-name="delete" d="M468.806 893.959c-87.974-7.78-174.54-42.386-247.834-99.028-37.316-28.832-83.75-81.214-109.342-123.248-91.846-150.882-91.846-339.152 0-490.034 25.592-42.034 72.168-94.592 109.342-123.318 67.696-52.278 140.216-83.398 225.302-96.668 30.346-4.718 101.104-4.718 131.45 0 105.048 16.404 192.598 60.41 265.752 133.528 73.118 73.154 117.122 160.704 133.528 265.752 4.718 30.346 4.718 101.104 0 131.45-13.306 85.122-44.462 157.782-96.704 225.302-15.806 20.418-56.712 61.29-77.272 77.236-97.022 75.090-213.756 109.66-334.222 99.028zM546.464 800.247c86.284-8.202 164.084-43.934 226.254-103.956 92.62-89.418 132.894-220.656 106.456-347.002-12.322-58.86-40.062-116.206-78.364-162.006-35.908-42.948-76.532-74.772-125.852-98.606-103.498-49.954-222.416-49.954-325.914 0-49.32 23.832-89.946 55.656-125.852 98.606-93.818 112.158-112.968 272.158-48.37 403.68 63.156 128.564 190.134 208.898 333.412 210.94 9.822 0.14 27.036-0.598 38.232-1.654zM369.918 604.903c-10.386-2.006-17.18-5.738-24.326-13.306-12.638-13.448-16.194-28.162-11.054-45.906 3.098-10.772 4.682-12.568 56.924-65.020l53.72-53.968-53.72-54.002c-52.102-52.418-53.792-54.32-56.924-65.092-5.14-17.708-1.584-32.422 11.054-45.87 12.602-13.412 29.218-17.814 47.348-12.532 10.772 3.134 12.674 4.822 65.092 56.924l54.002 53.72 53.968-53.72c50.764-50.552 54.566-53.896 64.14-56.712 13.342-3.908 18.552-3.766 30.874 0.844 13.272 4.964 24.29 16.686 28.268 30.134 3.696 12.392 3.696 15.454-0.070 28.128-2.852 9.576-6.266 13.448-56.678 64.176l-53.686 53.968 53.686 53.968c50.412 50.728 53.826 54.6 56.678 64.176 3.766 12.674 3.766 15.736 0.106 28.058-3.59 12.11-13.87 23.974-25.1 28.938-10.772 4.788-28.762 4.928-38.794 0.316-4.646-2.112-26.826-22.706-60.41-56.008l-53.052-52.664-52.066 51.82c-31.366 31.226-55.094 53.334-59.6 55.552-9.4 4.612-20.206 6.056-30.38 4.084z" />
<glyph unicode="&#xe918;" glyph-name="delivery" d="M497.705 908.687c-25.544-2.946-28.892-4.52-115.165-54.369-34.349-19.886-68.095-39.337-74.991-43.22-46.233-26.314-172.246-99.765-178.707-104.218-27.184-18.714-45.865-49.246-50.653-82.926-1.473-10.211-1.875-69.032-1.473-206.226 0.536-177.937 0.803-192.701 3.75-202.644 7.566-25.377 21.828-47.305 41.279-63.374 12.655-10.479 333.611-195.747 348.375-201.104 18.279-6.629 39.069-8.939 57.147-6.327 8.403 1.239 20.321 4.051 26.448 6.26 9.91 3.616 320.42 181.218 340.072 194.509 10.646 7.198 25.879 22.732 33.378 34.047 8.604 12.923 16.304 33.746 18.58 50.184 2.511 18.078 2.578 377.032 0.067 394.675-5.089 35.822-26.213 67.693-58.286 87.914-23 14.53-312.185 180.448-324.639 186.273-20.422 9.575-42.618 13.157-65.182 10.546zM527.166 840.692c6.26-1.707 310.779-175.794 316.436-180.849 1.607-1.473-14.396-11.517-63.575-39.906-36.19-20.857-66.387-37.931-67.157-37.931-2.21 0-333.008 191.295-332.975 192.567 0.067 1.942 104.753 61.667 113.793 64.914 9.843 3.549 23.301 4.017 33.478 1.205zM478.689 639.153c90.994-52.561 165.249-96.116 164.981-96.853-0.737-2.21-130.498-76.498-132.641-75.962-5.859 1.507-332.539 191.763-331.334 192.969 3.113 3.113 129.762 75.895 131.603 75.627 1.071-0.134 76.397-43.254 167.391-95.781zM321.475 498.076l156.444-90.157 0.1-193.337 0.067-193.303-4.921 2.578c-2.712 1.44-72.413 41.546-154.904 89.153-89.655 51.757-152.862 89.32-157.18 93.438-3.984 3.75-9.207 10.88-11.617 15.768l-4.386 8.939-0.469 184.465-0.502 184.499 10.479-5.926c5.725-3.281 80.85-46.501 166.889-96.116zM877.951 232.058c-2.444-10.077-10.847-23.401-18.313-29.059-3.147-2.377-71.61-42.316-152.125-88.751s-149.815-86.441-154-88.851l-7.6-4.386 0.1 193.471 0.067 193.437 131.067 75.393 0.971-51.088c1.004-54.369 1.507-57.516 10.311-66.923 14.094-15.065 40.241-12.655 51.791 4.754l4.787 7.231 0.904 73.083 0.87 73.116 132.139 76.196 0.502-179.812c0.335-126.046-0.1-182.189-1.473-187.813zM233.561 313.644c-8.671-2.779-19.15-13.827-21.56-22.799-3.917-14.53 1.406-27.954 14.63-36.86 4.252-2.879 38.232-22.832 75.527-44.359 66.253-38.266 67.994-39.136 77.67-39.069 12.186 0.1 19.853 3.95 26.716 13.425 9.273 12.789 8.738 29.997-1.306 40.977-5.859 6.428-140.91 85.102-151.958 88.55-9.039 2.812-11.249 2.846-19.719 0.134z" />
<glyph unicode="&#xe919;" glyph-name="dock" horiz-adv-x="796" d="M160.679 852.53c-70.164 0-128.946-55.932-128.946-125.553v-641.338c0-69.623 58.782-125.553 128.946-125.553h475.066c70.165 0 128.946 55.93 128.946 125.553v511.756c0 33.618-13.896 65.767-38.175 89.18 0 0.015 0 0.034 0 0.052s0 0.037 0 0.055v-0.003l-134.355 129.477c-24.282 23.413-56.908 36.372-90.771 36.372zM160.679 784.663h340.711c16.494 0 32.231-6.445 43.583-17.391l134.355-129.477c11.347-10.943 17.497-25.461 17.497-40.401v-511.756c0-31.623-26.253-57.686-61.080-57.686h-475.066c-34.825 0-61.080 26.064-61.080 57.686v641.338c0 31.618 26.254 57.686 61.080 57.686zM362.582 525.922c-18.741 0-33.934-15.193-33.934-33.934v0c0-18.741 15.193-33.934 33.934-33.934v0h225.656c18.741 0 33.934 15.193 33.934 33.934v0c0 18.741-15.193 33.934-33.934 33.934v0zM214.124 531.436c-18.584-0.059-33.647-15.049-33.827-33.598v-0.017c-0.814-3.11-6.044-2.67-6.044-6.044 0-22.201 18.891-39.66 39.872-39.66 20.984 0 39.872 17.459 39.872 39.66 0 3.345-5.244 2.852-6.044 5.938-0.12 18.612-15.206 33.662-33.821 33.721h-0.006zM362.582 393.052c-18.741 0-33.934-15.193-33.934-33.934v0c0-18.741 15.193-33.934 33.934-33.934h225.656c18.741 0 33.934 15.193 33.934 33.934v0c0 18.741-15.193 33.934-33.934 33.934v0zM214.124 398.778c-18.584-0.059-33.647-15.049-33.827-33.598v-0.017c-0.814-3.11-6.044-2.67-6.044-6.044 0-22.201 18.891-39.66 39.872-39.66 20.984 0 39.872 17.459 39.872 39.66 0 3.345-5.244 2.852-6.044 5.938-0.12 18.612-15.206 33.662-33.821 33.721h-0.006zM362.582 260.076c-18.741 0-33.934-15.193-33.934-33.934v0c0-18.741 15.193-33.934 33.934-33.934v0h225.656c18.741 0 33.934 15.193 33.934 33.934v0c0 18.741-15.193 33.934-33.934 33.934v0zM214.124 266.121c-18.658-0.060-33.768-15.169-33.827-33.821v-0.006c-0.029-0.030-0.064-0.065-0.098-0.1l-0.008-0.009c-0.771-3.031-5.938-2.547-5.938-5.829 0-7.916 10.167-7.972 14.21-14.104 1.752-2.193 3.703-4.11 5.859-5.774l0.079-0.058c7.328-7.019 9.34-19.618 19.724-19.618s12.396 12.598 19.724 19.618c2.235 1.722 4.186 3.639 5.886 5.764l0.052 0.068c4.042 6.132 14.21 6.187 14.21 14.104 0 3.282-5.168 2.799-5.938 5.832 0 0.016 0 0.035 0 0.054s0 0.038 0 0.057v-0.003c-0.060 18.695-15.23 33.827-33.933 33.827 0 0 0 0 0 0v0z" />
<glyph unicode="&#xe91a;" glyph-name="dots" d="M487.593 873.082c-20.983-6.413-45.627-31.623-51.467-52.606-14.149-50.848 23.643-101.742 75.492-101.742 23.077 0 37.364 6.169 55.029 23.834s23.834 31.952 23.834 55.029c0 29.582-17.757 57.59-44.962 70.929-13.339 6.505-43.724 8.875-57.926 4.556zM482.326 490.651c-15.38-6.031-33.282-22.412-41.637-38.174-4.984-9.303-5.886-14.768-5.886-35.086 0-28.199 3.799-37.647 22.978-56.543 30.431-30.003 78.909-29.483 109.577 1.185 38.503 38.549 27.442 102.506-21.839 126.669-16.855 8.217-45.107 9.119-63.193 1.949zM485.98 112.342c-23.36-8.928-44.297-31.004-50.282-53.126-4.128-15.288-1.521-43.632 5.175-56.734 24.591-47.951 88.502-58.209 126.478-20.272 21.51 21.51 28.818 52.889 19.087 81.569-5.175 15.196-24.591 36.607-40.597 44.679-15.097 7.644-44.916 9.54-59.868 3.891z" />
<glyph unicode="&#xe91b;" glyph-name="dots-menu" d="M165.565 483.353c-12.865-5.066-28.705-19.539-35.661-32.525-4.141-7.8-4.905-12.463-4.905-29.63 0-17.207 0.764-21.83 4.985-29.71 21.71-40.766 75.1-49.29 107.263-17.167 32.605 32.645 23.238 86.799-18.494 107.263-14.152 6.875-38.193 7.719-53.188 1.769zM487.034 483.313c-24.323-9.609-41.49-35.299-41.49-62.114 0-59.34 71.321-88.849 113.334-46.877 32.605 32.645 23.238 86.799-18.494 107.263-14.192 6.915-38.193 7.719-53.35 1.729zM811.477 484.358c-17.81-6.513-33.57-22.072-40.244-39.64-16.363-43.058 16.162-89.976 62.396-89.976 18.333 0 33.69 6.433 46.877 19.579 42.133 42.173 12.061 113.855-47.48 113.213-7.357-0.080-17.046-1.528-21.549-3.176z" />
<glyph unicode="&#xe91c;" glyph-name="dotts" d="M230.402 405.334c0-51.413-41.678-93.091-93.091-93.091s-93.091 41.678-93.091 93.091c0 51.413 41.678 93.091 93.091 93.091s93.091-41.678 93.091-93.091zM602.766 405.334c0-51.413-41.678-93.091-93.091-93.091s-93.091 41.678-93.091 93.091c0 51.413 41.678 93.091 93.091 93.091s93.091-41.678 93.091-93.091zM975.129 405.334c0-51.413-41.678-93.091-93.091-93.091s-93.091 41.678-93.091 93.091c0 51.413 41.678 93.091 93.091 93.091s93.091-41.678 93.091-93.091z" />
<glyph unicode="&#xe91d;" glyph-name="download" d="M503.532 881.952c-12.526-3.106-21.982-12.138-25.336-24.242-1.27-4.658-1.94-102.646-1.94-294.916v-287.894l-42.836 42.59c-23.536 23.43-44.918 43.684-47.494 44.99-6.598 3.388-24.242 3-31.298-0.67-17.042-8.856-23.888-31.158-14.784-48.306 1.376-2.612 36.662-38.778 78.404-80.346 64.22-63.972 77.028-75.9 83.414-77.628 9.35-2.506 11.326-2.506 20.678 0 6.386 1.728 19.196 13.656 83.414 77.628 41.742 41.566 77.028 77.734 78.404 80.346 9.104 17.148 2.258 39.45-14.784 48.306-7.058 3.67-24.7 4.058-31.298 0.67-2.576-1.306-23.958-21.56-47.494-44.99l-42.836-42.59v287.894c0 192.27-0.67 290.258-1.94 294.916-2.294 8.222-9.598 17.502-16.62 21.1-6.634 3.388-18.702 4.87-25.652 3.14zM164.614 552.281c-27.382-3.21-51.622-15.384-73.006-36.732-15.666-15.632-25.582-31.546-32.71-52.504l-5.152-15.032v-376.39l5.152-15.066c7.092-20.89 17.042-36.838 32.674-52.504 15.666-15.632 31.616-25.582 52.504-32.674l15.066-5.152h705.71l15.066 5.152c20.89 7.092 36.838 17.042 52.504 32.674 15.632 15.666 25.582 31.616 32.674 52.504l5.152 15.066v376.39l-5.152 15.032c-7.128 20.96-17.042 36.874-32.71 52.504-22.23 22.16-45.236 33.38-75.582 36.874-20.466 2.328-154.904 2.434-164.96 0.106-25.052-5.822-35.286-36.768-18.666-56.528 10.48-12.456 8.116-12.138 100.388-13.196 82.78-0.918 83.874-0.988 92.59-5.292 11.292-5.54 22.654-16.938 28.228-28.194l4.34-8.856v-361.324l-4.376-8.892c-6.21-12.596-19.584-25.088-31.722-29.64-10.056-3.776-13.832-3.81-350.632-3.81s-340.576 0.036-350.632 3.81c-12.138 4.552-25.512 17.042-31.722 29.64l-4.376 8.892v361.324l4.34 8.856c5.576 11.256 16.938 22.654 28.228 28.194 8.716 4.304 9.81 4.376 92.59 5.292 92.272 1.058 89.908 0.74 100.388 13.196 16.62 19.76 6.386 50.706-18.666 56.528-9.104 2.118-149.116 1.906-167.536-0.246z" />
<glyph unicode="&#xe91e;" glyph-name="edit" d="M184.324 802.209c-77.231 0-140.852-63.619-140.852-140.852v-563.408c0-77.235 63.622-140.852 140.852-140.852h563.408c77.228 0 140.852 63.616 140.852 140.852v328.655c0 25.93-21.021 46.951-46.951 46.951v0c-25.93 0-46.951-21.021-46.951-46.951v0-328.655c0-26.53-20.425-46.951-46.951-46.951h-563.408c-26.53 0-46.951 20.416-46.951 46.951v563.408c0 26.528 20.423 46.951 46.951 46.951h328.655c25.93 0 46.951 21.021 46.951 46.951v0c0 25.93-21.021 46.951-46.951 46.951v0zM818.647 892.32c-24.141-0.002-48.267-9.096-66.391-27.266l-353.597-353.597c-17.686-17.653-27.51-41.602-27.51-66.391v-113.342c0.002-25.929 21.021-46.948 46.95-46.951h113.342c24.782 0 48.732 9.821 66.391 27.51l353.6 353.6c36.346 36.248 36.278 96.51 0 132.783l-66.394 66.389c-18.136 18.133-42.251 27.268-66.391 27.266zM818.647 798.663l66.391-66.268c0-0.018 0-0.040 0-0.061s0-0.043 0-0.065v0.003l-353.597-353.598h-66.391v66.391z" />
<glyph unicode="&#xe91f;" glyph-name="file" d="M548.669 212.11c0-20.251-16.418-36.663-36.669-36.663h-216.334c-20.251 0-36.666 16.413-36.666 36.663s16.416 36.669 36.666 36.669h216.334c20.251 0 36.669-16.418 36.669-36.669zM981.334 677.503v-429.334c0-56.302-21.923-109.223-61.731-149.032l-78.294-78.294c-39.809-39.809-92.731-61.731-149.032-61.731h-429.334c-121.754 0-220.275 98.531-220.275 220.276v498.114c0 121.754 98.532 220.275 220.275 220.275h498.114c121.755 0 220.276-98.532 220.276-220.275zM903.082 211.5h-100.803c-40.438 0-73.334-32.896-73.334-73.334v-100.803c22.664 6.233 43.438 18.262 60.507 35.331l78.294 78.299c17.075 17.069 29.103 37.843 35.336 60.507zM908 677.503c0 81.218-65.725 146.942-146.944 146.942h-498.114c-81.218 0-146.942-65.726-146.942-146.942v-498.114c0-81.218 65.726-146.944 146.942-146.944h392.669v105.721c0 80.871 65.795 146.666 146.666 146.666h105.721v392.669zM728.335 465.111h-432.667c-20.251 0-36.666-16.416-36.666-36.666s16.416-36.669 36.666-36.669h432.667c20.251 0 36.663 16.418 36.663 36.669s-16.413 36.666-36.663 36.666zM728.335 681.445h-432.667c-20.251 0-36.666-16.416-36.666-36.666s16.416-36.666 36.666-36.666h432.667c20.251 0 36.663 16.416 36.663 36.666s-16.413 36.666-36.663 36.666z" />
<glyph unicode="&#xe920;" glyph-name="film" d="M277.333 893.868c-25.92 0-46.933-21.013-46.933-46.933v0-844.8c0-25.92 21.013-46.933 46.933-46.933v0c25.92 0 46.933 21.013 46.933 46.933v0 844.8c0 25.92-21.013 46.933-46.933 46.933v0zM746.667 893.868c-25.92 0-46.933-21.013-46.933-46.933v0-844.8c0-25.92 21.013-46.933 46.933-46.933v0c25.92 0 46.933 21.013 46.933 46.933v0 844.8c0 25.92-21.013 46.933-46.933 46.933v0zM183.467 893.868c-77.203 0-140.8-63.597-140.8-140.8v-657.067c0-77.205 63.598-140.8 140.8-140.8h657.067c77.203 0 140.8 63.597 140.8 140.8v657.067c0 77.202-63.595 140.8-140.8 140.8zM183.467 800h657.067c26.524 0 46.933-20.413 46.933-46.933v-657.067c0-26.526-20.409-46.933-46.933-46.933h-657.067c-26.52 0-46.933 20.41-46.933 46.933v657.067c0 26.518 20.415 46.933 46.933 46.933zM89.6 706.133c-25.92 0-46.933-21.013-46.933-46.933v0c0-25.92 21.013-46.933 46.933-46.933v0h187.733c25.92 0 46.933 21.013 46.933 46.933v0c0 25.92-21.013 46.933-46.933 46.933v0zM89.6 236.8c-25.92 0-46.933-21.013-46.933-46.933v0c0-25.92 21.013-46.933 46.933-46.933v0h187.733c25.92 0 46.933 21.013 46.933 46.933v0c0 25.92-21.013 46.933-46.933 46.933v0zM746.667 236.8c-25.92 0-46.933-21.013-46.933-46.933v0c0-25.92 21.013-46.933 46.933-46.933v0h187.733c25.92 0 46.933 21.013 46.933 46.933v0c0 25.92-21.013 46.933-46.933 46.933v0zM746.667 706.133c-25.92 0-46.933-21.013-46.933-46.933v0c0-25.92 21.013-46.933 46.933-46.933v0h187.733c25.92 0 46.933 21.013 46.933 46.933v0c0 25.92-21.013 46.933-46.933 46.933v0zM89.6 471.468c-25.92 0-46.933-21.013-46.933-46.933v0c0-25.92 21.013-46.933 46.933-46.933v0h844.8c25.92 0 46.933 21.013 46.933 46.933v0c0 25.92-21.013 46.933-46.933 46.933v0z" />
<glyph unicode="&#xe921;" glyph-name="filter" d="M197.136 805.443c-104.362-16.286-176.474-119.582-155.458-222.664 13.12-64.466 55.222-115.456 115.314-139.706 50.564-20.374 104.896-18.242 154.464 6.044 19.948 9.742 33.318 19.414 49.78 35.878 21.726 21.69 35.238 43.238 45.408 72.29l4.552 13.050 494.326 1.884 9.068 5.334c35.344 20.766 30.33 72.112-8.356 85.766-6.72 2.382-42.598 2.774-251.358 2.774-230.238 0-243.572 0.178-244.566 3.306-0.568 1.85-3.662 10.17-6.828 18.49-23.646 62.012-80.716 107.634-147.28 117.66-21.868 3.306-37.372 3.272-59.062-0.106zM252.356 710.041c35.024-9.174 62.866-40.322 68.414-76.662 4.764-30.97-4.444-58.92-26.704-81.286-13.938-13.974-26.526-21.192-44.198-25.388-31.754-7.468-62.582 0.568-86.156 22.508-63.080 58.6-22.046 164.064 63.826 164.064 6.792 0 17.956-1.458 24.82-3.236zM766.060 331.315c-71.472-11.13-130.924-64.182-152.436-136.008-0.924-3.13-14.188-3.306-243.5-3.306-199.978 0-243.998-0.462-251.146-2.596-31.148-9.388-43.488-46.368-24.286-72.858 3.094-4.266 9.708-10.134 14.72-13.086l9.068-5.334 494.326-1.92 4.552-13.014c10.17-29.050 23.682-50.598 45.408-72.324 64.928-64.928 163.21-74.032 241.296-22.366 14.046 9.246 39.22 34.456 48.5 48.466 36.126 54.616 43.238 119.368 19.556 177.968-25.246 62.51-80.788 106.532-146.996 116.524-21.868 3.272-37.372 3.236-59.062-0.142zM821.282 235.913c67.774-17.708 92.414-103.758 44.448-155.388-43.346-46.652-117.66-38.758-150.836 16.036-37.372 61.622 8.96 142.622 81.57 142.622 6.792 0 17.956-1.458 24.82-3.272z" />
<glyph unicode="&#xe922;" glyph-name="full-screen" d="M452.373 363.611c4.332-4.296 7.772-9.409 10.118-15.041s3.555-11.675 3.555-17.774c0-6.103-1.209-12.142-3.555-17.774s-5.785-10.744-10.118-15.041l-244.979-244.515h119.715c12.259 0 24.014-4.868 32.682-13.537s13.539-20.425 13.539-32.687c0-12.262-4.871-24.014-13.539-32.687s-20.426-13.537-32.682-13.537h-231.112c-12.259 0-24.014 4.868-32.682 13.537s-13.539 20.425-13.539 32.687v231.112c0 12.262 4.871 24.014 13.539 32.687 8.668 8.664 20.426 13.537 32.682 13.537s24.014-4.873 32.682-13.537c8.668-8.67 13.539-20.425 13.539-32.687v-119.715l244.515 244.979c4.296 4.332 9.409 7.772 15.041 10.118s11.674 3.555 17.774 3.555c6.103 0 12.142-1.209 17.774-3.555s10.746-5.785 15.041-10.118zM928 885.459h-231.112c-12.262 0-24.014-4.871-32.687-13.539-8.664-8.668-13.537-20.426-13.537-32.682s4.873-24.014 13.537-32.682c8.67-8.668 20.425-13.539 32.687-13.539h119.715l-244.979-244.515c-4.332-4.296-7.772-9.409-10.118-15.041s-3.555-11.674-3.555-17.774c0-6.103 1.209-12.142 3.555-17.774s5.785-10.746 10.118-15.041c4.296-4.332 9.409-7.772 15.041-10.118s11.675-3.555 17.774-3.555c6.103 0 12.142 1.209 17.774 3.555s10.744 5.785 15.041 10.118l244.515 244.979v-119.715c0-12.259 4.868-24.014 13.537-32.682s20.425-13.539 32.687-13.539c12.262 0 24.014 4.871 32.687 13.539s13.537 20.426 13.537 32.682v231.112c0 12.259-4.868 24.014-13.537 32.682s-20.425 13.539-32.687 13.539z" />
<glyph unicode="&#xe923;" glyph-name="gear" d="M473.061 896.002c-34.864-0.319-66.095-22.558-77.876-55.37l-24.44-68.211c-1.077-2.893-3.132-5.212-5.798-6.765l-72.631-41.977c-2.643-1.525-5.7-2.057-8.7-1.519l-71.387 12.841c-34.516 6.241-69.523-9.999-87.13-40.318l-38.664-66.555c-17.632-30.385-14.202-68.958 8.422-95.827l46.255-55.231c0.047-0.047 0.091-0.092 0.137-0.137l0.002-0.002c1.972-2.328 3.036-5.228 3.038-8.283v-83.953c-0.001-3.056-1.064-5.953-3.038-8.283l-46.808-55.37c-0.047-0.047-0.092-0.091-0.137-0.137l-0.002-0.002c-22.627-26.873-25.916-65.306-8.284-95.689l38.525-66.555c17.587-30.463 52.661-46.743 87.266-40.457l71.387 12.98c2.999 0.539 6.063 0.002 8.7-1.519l72.631-41.977c2.695-1.57 4.735-3.971 5.798-6.904l24.44-68.211c11.873-33.070 43.563-55.231 78.705-55.231h77.049c35.162-0.024 66.82 22.136 78.705 55.231l24.44 68.211 0.139 0.142c1.077 2.833 3.047 5.254 5.662 6.765l72.631 41.977c2.641 1.525 5.701 2.059 8.7 1.519l71.387-12.98c34.581-6.252 69.69 10.021 87.266 40.457l38.525 66.552c17.631 30.385 14.337 68.818-8.283 95.689-0.040 0.039-0.086 0.084-0.132 0.129l-0.010 0.010-46.805 55.37c-1.976 2.335-3.038 5.244-3.038 8.283v83.953c0 3.043 1.063 5.952 3.038 8.283l46.809 55.37c0.021 0 0.046 0 0.071 0s0.050 0 0.076 0h-0.004c22.62 26.873 25.911 65.442 8.283 95.827l-38.525 66.416c-17.583 30.47-52.657 46.75-87.266 40.457l-71.387-12.841c-3-0.539-6.054-0.008-8.7 1.519l-72.631 41.977c-2.653 1.534-4.732 3.892-5.798 6.765v0.139l-24.44 68.075c-11.874 33.067-43.563 55.37-78.705 55.37h-77.049c-0.061 0-0.135 0.001-0.208 0.001s-0.145 0-0.218-0.001h0.011zM473.753 825.304h76.772c5.55 0 10.274-3.333 12.152-8.561l24.439-68.211c0.047-0.047 0.091-0.092 0.137-0.137l0.002-0.002c6.72-18.541 19.793-34.032 36.867-43.91l72.631-41.977c17.095-9.863 37.187-13.441 56.613-9.942l71.387 12.98c5.476 0.996 10.753-1.536 13.532-6.35l38.525-66.555c2.761-4.76 2.246-10.399-1.243-14.638l-46.808-55.37c-12.771-15.080-19.745-34.214-19.745-53.989v-83.953c0-19.777 6.975-38.911 19.745-53.989l46.809-55.37c3.487-4.235 4.005-9.877 1.243-14.638l-38.525-66.555c0-0.021 0-0.046 0-0.071s0-0.050 0-0.076v0.004c-2.771-4.8-8.070-7.202-13.532-6.215l-71.387 12.841c-19.427 3.503-39.512 0.069-56.613-9.803l-72.631-41.977c-17.086-9.88-30.149-25.515-36.867-44.048l-24.579-68.349c-1.881-5.235-6.587-8.427-12.152-8.422h-77.049c-5.55 0-10.271 3.188-12.152 8.422l-24.579 68.353c-6.709 18.488-19.721 34.15-36.729 44.048-0.020 0-0.045 0-0.069 0s-0.049 0-0.073 0h0.004l-72.631 41.977c-17.102 9.875-37.187 13.306-56.613 9.803l-71.387-12.841c-5.479-0.996-10.752 1.398-13.532 6.215 0 0.021 0 0.046 0 0.071s0 0.050 0 0.076v-0.004l-38.525 66.552c-2.761 4.76-2.246 10.399 1.243 14.638v0.139l46.809 55.231c12.775 15.081 19.738 34.227 19.745 53.989v83.953c-0.010 19.701-6.905 38.793-19.608 53.85l-0.139 0.139-46.255 55.231c-0.020 0-0.045 0-0.069 0s-0.049 0-0.073 0h0.004c-3.577 4.249-4.031 9.972-1.243 14.774l38.664 66.555c2.78 4.813 7.924 7.34 13.393 6.35l71.387-12.98c19.426-3.499 39.519 0.077 56.613 9.942l72.767 41.838c0 0.020 0 0.045 0 0.069s0 0.049 0 0.073v-0.004c17.003 9.895 30.019 25.417 36.729 43.91 0.047 0.047 0.092 0.091 0.137 0.137l0.002 0.002 24.44 68.211c1.86 5.184 6.503 8.51 12.014 8.561zM512 594.572c-92.345 0-168.044-75.561-168.044-167.905s75.701-168.044 168.044-168.044c92.345 0 167.905 75.7 167.905 168.044s-75.561 167.905-167.905 167.905zM512 523.874c54.135 0 97.207-43.072 97.207-97.207s-43.071-97.346-97.207-97.346c-54.134 0-97.346 43.21-97.346 97.346s43.212 97.207 97.346 97.207z" />
<glyph unicode="&#xe924;" glyph-name="geometric" d="M488.096 897.067c-13.792-3.2-21.792-6.048-33.28-11.776-13.088-6.528-306.624-175.904-315.712-182.176-8.928-6.112-23.84-21.12-30.176-30.272-7.104-10.304-16.16-30.112-19.712-43.072-2.816-10.336-3.040-24.512-3.040-204.8v-193.728l5.536-16.192c9.184-27.008 27.36-51.232 49.952-66.528 17.888-12.128 312.832-181.408 323.2-185.504 30.272-11.968 65.312-12 94.72-0.032 10.048 4.096 306.24 174.368 323.104 185.76 28.064 18.976 48.416 50.848 54.24 85.056 1.312 7.776 1.728 67.52 1.376 199.68l-0.48 188.608-5.536 16.192c-9.472 27.904-28.736 52.928-52.352 68.064-18.848 12.096-301.984 174.752-314.176 180.512-6.56 3.072-16.544 6.88-22.176 8.416-13.472 3.648-43.36 4.64-55.488 1.792zM666.88 516.523c84.704-146.72 154.016-267.296 154.016-267.904 0-0.64-139.008-1.152-308.896-1.152s-308.896 0.512-308.896 1.12c0 1.696 307.904 534.688 308.896 534.688 0.48 0 70.176-120.032 154.88-266.752zM284.864 562.187c-60.16-104.096-110.432-191.2-111.744-193.536-2.016-3.68-2.304 13.28-1.984 119.456l0.384 123.744 3.84 7.168c2.112 3.936 6.336 9.152 9.376 11.552 5.536 4.384 208.256 121.952 209.088 121.28 0.224-0.192-48.8-85.536-108.96-189.664zM738.944 689.611c53.952-31.136 99.936-58.272 102.144-60.352 2.24-2.080 5.696-6.848 7.712-10.592 3.648-6.784 3.68-7.584 4.16-130.528l0.448-123.744-111.808 193.568c-61.504 106.464-111.84 193.888-111.84 194.272s2.496-0.832 5.536-2.688c3.072-1.856 49.696-28.832 103.648-59.936zM733.856 160.523c-1.408-0.832-48.544-28.032-104.768-60.448-75.52-43.584-104.128-59.264-109.632-60.096-16.064-2.4-17.44-1.76-124.608 60.096-56.192 32.416-103.296 59.616-104.704 60.448-1.504 0.864 91.904 1.504 221.856 1.504 130.208 0 223.36-0.64 221.856-1.504z" />
<glyph unicode="&#xe925;" glyph-name="grid" d="M60.089 903.020c-13.071-3.213-22.964-12.665-26.51-25.327-2.918-10.521-2.769-355.104 0.149-365.625 2.807-10.042 14.4-21.673 24.442-24.442 11.003-3.064 355.177-3.064 366.142 0 10.042 2.769 21.673 14.4 24.442 24.442 2.953 10.521 3.064 355.104 0.149 365.625-2.474 8.862-10.007 18.203-18.349 22.78-5.687 3.137-20.195 3.397-185.38 3.692-98.542 0.184-181.834-0.333-185.085-1.145zM601.607 903.020c-13.106-3.213-23.002-12.665-26.51-25.327-2.918-10.521-2.807-355.104 0.149-365.625 2.769-10.042 14.4-21.673 24.442-24.442 10.965-3.064 355.142-3.064 366.142 0 10.042 2.769 21.635 14.4 24.442 24.442 2.918 10.521 3.064 355.104 0.149 365.625-2.474 8.862-10.007 18.203-18.387 22.78-5.687 3.137-20.195 3.397-185.342 3.692-98.542 0.184-181.834-0.333-185.085-1.145zM376.132 695.117v-134.872h-269.779v269.779h269.779v-134.907zM917.647 695.117v-134.872h-269.779v269.779h269.779v-134.907zM60.089 361.54c-13.071-3.213-22.964-12.7-26.51-25.327-2.918-10.521-2.769-355.104 0.149-365.663 2.807-10.042 14.4-21.635 24.442-24.442 11.003-3.064 355.177-3.064 366.142 0 10.042 2.807 21.673 14.4 24.442 24.442 2.953 10.559 3.064 355.142 0.149 365.663-2.474 8.824-10.007 18.203-18.349 22.78-5.687 3.102-20.195 3.397-185.38 3.692-98.542 0.149-181.834-0.368-185.085-1.145zM601.607 361.54c-13.106-3.213-23.002-12.7-26.51-25.327-2.918-10.521-2.807-355.104 0.149-365.663 2.769-10.042 14.4-21.635 24.442-24.442 10.965-3.064 355.142-3.064 366.142 0 10.042 2.807 21.635 14.4 24.442 24.442 2.918 10.559 3.064 355.142 0.149 365.663-2.474 8.824-10.007 18.203-18.387 22.78-5.687 3.102-20.195 3.397-185.342 3.692-98.542 0.149-181.834-0.368-185.085-1.145zM376.132 153.639v-134.907h-269.779v269.779h269.779v-134.872zM917.647 153.639v-134.907h-269.779v269.779h269.779v-134.872z" />
<glyph unicode="&#xe926;" glyph-name="info" d="M512 659.2c-13.067-0.037-24.874-5.408-33.359-14.049l-0.006-0.006c-14.453-10.795-25.217-25.699-25.177-44.733 0.095-31.795 26.731-58.544 58.544-58.544 31.871 0 58.667 26.796 58.667 58.667 0 18.962-10.881 33.816-25.3 44.612-8.494 8.648-20.3 14.019-33.359 14.056h-0.006zM512 893.868c-258.664 0-469.333-210.669-469.333-469.333 0-258.669 210.669-469.333 469.333-469.333 258.668 0 469.333 210.667 469.333 469.333 0 258.664-210.666 469.333-469.333 469.333zM512 800c207.949 0 375.467-167.521 375.467-375.467 0-207.949-167.516-375.467-375.467-375.467-207.946 0-375.467 167.517-375.467 375.467 0 207.946 167.522 375.467 375.467 375.467zM512 471.468c-25.92 0-46.933-21.013-46.933-46.933v0-234.667c0-25.92 21.013-46.933 46.933-46.933v0c25.92 0 46.933 21.013 46.933 46.933v0 234.667c0 25.92-21.013 46.933-46.933 46.933v0z" />
<glyph unicode="&#xe927;" glyph-name="lock" d="M512 892.941c-129.045 0-234.667-105.623-234.667-234.667v-140.8c0-25.92 21.013-46.933 46.933-46.933v0c25.92 0 46.933 21.013 46.933 46.933v0 140.8c0 78.307 62.493 140.8 140.8 140.8 78.312 0 140.8-62.493 140.8-140.8v-140.8c0-25.92 21.013-46.933 46.933-46.933v0c25.92 0 46.933 21.013 46.933 46.933v0 140.8c0 129.044-105.621 234.667-234.667 234.667zM512 376.672c-25.92 0-46.933-21.013-46.933-46.933v0-140.8c0-25.92 21.013-46.933 46.933-46.933v0c25.92 0 46.933 21.013 46.933 46.933v0 140.8c0 25.92-21.013 46.933-46.933 46.933v0zM277.333 564.405c-77.203 0-140.8-63.597-140.8-140.8v-328.533c0-77.205 63.598-140.8 140.8-140.8h469.333c77.203 0 140.8 63.597 140.8 140.8v328.533c0 77.202-63.595 140.8-140.8 140.8zM277.333 470.541h469.333c26.524 0 46.933-20.413 46.933-46.933v-328.533c0-26.526-20.409-46.933-46.933-46.933h-469.333c-26.52 0-46.933 20.41-46.933 46.933v328.533c0 26.518 20.415 46.933 46.933 46.933z" />
<glyph unicode="&#xe928;" glyph-name="log-out" d="M371.2 54.757h-187.734c-12.953 0-24.64 5.209-33.182 13.751s-13.751 20.229-13.751 33.182v657.065c0 12.953 5.209 24.64 13.751 33.182s20.229 13.751 33.182 13.751h187.734c25.906 0 46.934 21.026 46.934 46.934s-21.026 46.934-46.934 46.934h-187.734c-38.862 0-74.154-15.817-99.545-41.255s-41.255-60.686-41.255-99.545v-657.065c0-38.862 15.817-74.154 41.255-99.545s60.686-41.255 99.545-41.255h187.734c25.906 0 46.934 21.026 46.934 46.934s-21.026 46.934-46.934 46.934zM821.104 477.157h-449.903c-25.906 0-46.934-21.026-46.934-46.934s21.026-46.934 46.934-46.934h449.903l-154.551-154.551c-18.352-18.352-18.352-48.059 0-66.363s48.059-18.352 66.363 0l234.666 234.666c4.318 4.318 7.792 9.481 10.185 15.207 7.040 16.99 3.662 37.312-10.185 51.158l-234.666 234.666c-18.352 18.352-48.059 18.352-66.363 0s-18.352-48.059 0-66.363z" />
<glyph unicode="&#xe929;" glyph-name="mac" d="M148.534 901.671c-28.648-3.324-54.013-16.097-76.384-38.395-16.392-16.354-26.767-33.041-34.224-54.936l-5.389-15.764v-541.488l5.389-15.726c7.422-21.892 17.832-38.579 34.186-54.936 16.43-16.392 33.117-26.802 54.936-34.186l15.764-5.354 228.638-1.218-7.422-58.479c-4.060-32.194-7.457-59.586-7.495-60.953-0.073-1.884-9.636-2.474-40.942-2.509-22.485-0.038-44.339-0.85-48.586-1.846-27.836-6.461-37.472-40.98-17.131-61.321 3.987-3.987 10.743-8.196 15.063-9.414 11.038-3.064 483.082-3.064 494.123 0 4.32 1.218 11.076 5.427 15.063 9.414 20.341 20.341 10.705 54.86-17.131 61.321-4.247 0.996-26.101 1.808-48.586 1.846-31.306 0.038-40.869 0.628-40.942 2.509-0.038 1.367-3.432 28.759-7.495 60.953l-7.422 58.479 228.638 1.218 15.764 5.354c21.819 7.384 38.506 17.794 54.936 34.186 16.354 16.354 26.767 33.041 34.186 54.936l5.389 15.726v541.488l-5.389 15.764c-7.457 21.892-17.832 38.579-34.224 54.936-23.259 23.186-47.33 34.925-79.080 38.544-20.969 2.401-703.562 2.29-724.236-0.149zM882.555 823.476c11.815-5.833 23.703-17.721 29.536-29.536l4.542-9.23 1.034-398.724h-811.292v196.631c0 215.31-0.555 204.567 11.666 221.181 6.867 9.341 18.644 18.349 29.019 22.152 6.423 2.363 61.727 2.731 366.898 2.436l359.368-0.368 9.23-4.542zM917.258 286.051c-0.555-23.592-1.218-28.28-5.205-36.403-6.499-13.179-20.49-26.25-33.19-31.011-10.521-3.914-14.473-3.949-366.863-3.949s-356.342 0.038-366.863 3.949c-12.7 4.764-26.691 17.832-33.19 31.011-3.987 8.123-4.653 12.811-5.205 36.403l-0.666 27.062h811.845l-0.666-27.062zM585.209 80.78c4.025-31.934 7.384-59.18 7.422-60.547 0.073-1.919-17.353-2.474-80.888-2.474h-80.964l1.107 7.384c0.59 4.060 3.876 30.421 7.273 58.59 3.432 28.169 6.572 52.313 6.978 53.68 0.628 1.957 14.879 2.363 66.269 1.957l65.457-0.517 7.346-58.073z" />
<glyph unicode="&#xe92a;" glyph-name="menu" d="M152.964 893.876c-59.712 0-110.292-50.581-110.292-110.293v-211.2c0-59.713 50.58-110.293 110.292-110.293h211.2c59.714 0 110.294 50.58 110.294 110.293v211.2c0 59.712-50.58 110.293-110.294 110.293h-211.2zM136.539 783.583c0 7.872 8.555 16.428 16.428 16.428h211.2c7.872 0 16.428-8.556 16.428-16.428v-211.2c0-7.872-8.555-16.427-16.428-16.427h-211.2c-7.872 0-16.428 8.555-16.428 16.427v211.2zM659.845 893.876c-59.715 0-110.296-50.581-110.296-110.293v-211.2c0-59.713 50.581-110.293 110.296-110.293h211.2c59.71 0 110.291 50.58 110.291 110.293v211.2c0 59.712-50.581 110.293-110.291 110.293h-211.2zM643.416 783.583c0 7.872 8.555 16.428 16.429 16.428h211.2c7.869 0 16.422-8.556 16.422-16.428v-211.2c0-7.872-8.555-16.427-16.422-16.427h-211.2c-7.874 0-16.429 8.555-16.429 16.427v211.2zM42.672 276.705c0 59.71 50.58 110.291 110.292 110.291h211.2c59.714 0 110.294-50.581 110.294-110.291v-211.2c0-59.715-50.58-110.296-110.294-110.296h-211.2c-59.712 0-110.292 50.581-110.292 110.296v211.2zM152.964 293.127c-7.872 0-16.428-8.555-16.428-16.422v-211.2c0-7.874 8.555-16.429 16.428-16.429h211.2c7.872 0 16.428 8.555 16.428 16.429v211.2c0 7.869-8.555 16.422-16.428 16.422h-211.2zM659.845 386.996c-59.715 0-110.296-50.581-110.296-110.291v-211.2c0-59.715 50.581-110.296 110.296-110.296h211.2c59.71 0 110.291 50.581 110.291 110.296v211.2c0 59.71-50.581 110.291-110.291 110.291h-211.2zM643.416 276.705c0 7.869 8.555 16.422 16.429 16.422h211.2c7.869 0 16.422-8.555 16.422-16.422v-211.2c0-7.874-8.555-16.429-16.422-16.429h-211.2c-7.874 0-16.429 8.555-16.429 16.429v211.2z" />
<glyph unicode="&#xe92b;" glyph-name="messages" d="M564.704 894.251c-129.024-9.376-247.968-80.64-309.888-185.664-24.192-40.992-39.584-87.232-45.024-135.136-2.432-21.44-1.088-70.016 2.464-88.768 1.312-7.040 2.912-15.488 3.52-18.752l1.088-5.984-14.816-5.984c-47.040-18.944-91.424-57.024-119.488-102.432-38.336-62.080-48-140.448-26.048-211.008l5.408-17.376-12.192-58.592c-6.72-32.224-12.192-61.824-12.192-65.76 0.032-24.64 22.656-46.688 47.68-46.528 4.288 0.032 34.272 5.728 66.624 12.672 36.32 7.776 59.84 12.064 61.472 11.2 5.6-3.008 34.080-10.432 49.504-12.928 18.976-3.072 55.168-3.424 73.408-0.768 85.568 12.512 158.432 64.832 195.84 140.576 11.488 23.264 21.088 52.768 23.616 72.384 0.992 7.744 1.6 8.864 4.288 8 5.632-1.792 68.48-1.088 84.992 0.96l16.032 1.984 63.872-31.2c56.064-27.392 65.12-31.296 73.824-31.936 20.768-1.504 40.704 10.944 47.776 29.792 3.2 8.576 3.456 13.152 3.456 61.824v52.576l13.216 11.2c58.528 49.536 101.472 120.352 116.288 191.84 30.016 144.8-36.608 288.096-171.008 367.904-71.392 42.368-157.728 62.176-243.712 55.904zM642.4 796.139c125.568-17.632 224.544-105.248 244.352-216.288 4-22.304 3.968-62.272-0.032-83.2-12.064-63.072-47.936-117.952-104.448-159.808-24.672-18.272-27.936-25.632-27.936-63.168v-26.080l-35.584 17.6c-21.376 10.56-38.592 18.016-43.104 18.624-4.288 0.576-17.312-0.48-30.528-2.464-19.136-2.912-28.768-3.36-56.832-2.752-19.936 0.448-34.496 1.472-35.552 2.528-0.96 0.96-4.384 9.632-7.616 19.232-14.016 41.824-41.152 82.304-74.080 110.56-42.464 36.416-89.696 56.352-148.608 62.688l-9.504 1.024-1.952 8c-6.784 27.84-8.096 69.216-3.072 97.216 19.808 110.656 118.048 198.048 243.2 216.288 21.152 3.104 69.28 3.104 91.296 0zM321.696 377.003c38.048-4.64 70.272-21.056 97.376-49.536 23.616-24.832 38.784-56.864 41.12-86.88 1.792-23.008 1.376-50.112-0.96-59.68-11.424-47.296-45.216-88.544-89.536-109.312-20.704-9.728-37.472-13.728-61.76-14.816-24.384-1.056-40.736 1.696-65.6 11.040-22.88 8.608-27.040 8.704-62.208 1.344-16.608-3.488-30.624-5.888-31.168-5.344-0.544 0.512 1.92 14.912 5.44 31.968 7.328 35.36 7.264 37.92-1.44 60.416-9.44 24.48-11.904 40.064-10.784 68.128 1.024 25.664 3.168 35.84 11.648 55.84 20.352 47.968 64.832 84.832 113.792 94.368 23.392 4.544 33.248 4.992 54.080 2.464z" />
<glyph unicode="&#xe92c;" glyph-name="microphone" d="M512 892.8c-104.292-0.035-189.658-85.403-189.69-189.69v-254.338c0.035-104.292 85.403-189.656 189.69-189.69 50.295-0.019 98.552 20.011 134.115 55.575 35.565 35.565 55.589 83.822 55.575 134.115v254.338c-0.038 104.29-85.404 189.658-189.69 189.69zM512 818.699c64.258-0.021 115.567-51.329 115.589-115.589v-254.338c0.006-30.663-12.187-60.042-33.867-81.722s-51.062-33.877-81.722-33.867c-64.265 0.023-115.568 51.326-115.589 115.589v254.338c0.021 64.26 51.326 115.568 115.589 115.589zM166.099 477.622c-20.463 0-37.052-16.589-37.052-37.052v0c0-211.085 171.867-382.953 382.953-382.953s383.048 171.866 383.048 382.953c0 20.463-16.589 37.052-37.052 37.052v0c-20.463 0-37.052-16.589-37.052-37.052v0c0-171.039-137.908-308.852-308.947-308.852s-308.852 137.813-308.852 308.852c0 20.463-16.589 37.052-37.052 37.052v0zM512 131.721c-20.463 0-37.052-16.589-37.052-37.052v0-103.818c0-20.463 16.589-37.052 37.052-37.052v0c20.463 0 37.052 16.589 37.052 37.052v0 103.818c0 20.463-16.589 37.052-37.052 37.052v0z" />
<glyph unicode="&#xe92d;" glyph-name="microphone-mute" d="M512 143.778c-16.445 0-29.777-13.332-29.777-29.777v0-134c0-16.445 13.332-29.777 29.777-29.777v0c16.445 0 29.777 13.332 29.777 29.777v0 134c0 16.445-13.332 29.777-29.777 29.777v0zM378 9.778c-16.445 0-29.777-13.332-29.777-29.777v0c0-16.445 13.332-29.777 29.777-29.777v0h268c16.445 0 29.777 13.332 29.777 29.777v0c0 16.445-13.332 29.777-29.777 29.777v0zM512 903.111c-84.372 0-157.064-50.609-189.717-122.949-1.666-3.6-2.638-7.813-2.638-12.253 0-12.007 7.106-22.353 17.341-27.065l0.185-0.076c3.6-1.666 7.813-2.638 12.253-2.638 12.007 0 22.353 7.106 27.065 17.341l0.076 0.185c23.356 51.743 74.816 87.899 135.434 87.899 82.572 0 148.889-66.316 148.889-148.889v-268c0-16.445 13.332-29.777 29.777-29.777v0c16.445 0 29.777 13.332 29.777 29.777v0 268c0 114.764-93.682 208.444-208.444 208.444zM165.833 802.611c-8.222-0.001-15.665-3.335-21.054-8.724v0c-5.387-5.388-8.719-12.832-8.719-21.054s3.332-15.665 8.719-21.054l692.333-692.333c5.388-5.387 12.832-8.719 21.054-8.719s15.665 3.332 21.054 8.719v0c5.387 5.388 8.719 12.832 8.719 21.054s-3.332 15.665-8.719 21.054l-692.333 692.333c-5.388 5.389-12.832 8.723-21.054 8.724v0zM333.333 635.111c-16.445 0-29.777-13.332-29.777-29.777v0-178.667c0-114.765 93.68-208.444 208.444-208.444 57.406 0 109.723 23.36 147.377 61.067 5.399 5.39 8.739 12.842 8.739 21.074s-3.34 15.683-8.738 21.073v0c-5.388 5.387-12.832 8.719-21.054 8.719-8.241 0-15.701-3.348-21.092-8.758l-0.001-0.001c-26.932-26.969-63.921-43.619-105.231-43.619-82.574 0-148.889 66.314-148.889 148.889v178.667c0 16.445-13.332 29.777-29.777 29.777v0zM829.126 501.111c-16.445 0-29.777-13.332-29.777-29.777v0-40.207c0-38.339-7.619-74.712-21.247-108.215-1.39-3.321-2.197-7.181-2.197-11.228 0-12.402 7.581-23.033 18.363-27.512l0.197-0.072c3.321-1.39 7.181-2.197 11.228-2.197 12.402 0 23.033 7.581 27.512 18.363l0.072 0.197c16.388 40.286 25.629 84.404 25.629 130.666v40.207c0 16.445-13.332 29.777-29.777 29.777v0zM194.874 501.111c-16.445 0-29.777-13.332-29.777-29.777v-40.207c0-191.233 155.671-346.903 346.903-346.903 94.393 0 180.228 37.948 242.759 99.259 5.516 5.409 8.934 12.938 8.934 21.266 0 8.135-3.262 15.509-8.551 20.884l0.004-0.004c-5.407 5.504-12.929 8.915-21.247 8.915-8.126 0-15.492-3.255-20.864-8.532l0.004 0.004c-51.903-50.892-122.569-82.238-201.039-82.238-159.041 0-287.347 128.306-287.347 287.347v40.207c0 16.445-13.332 29.777-29.777 29.777v0z" />
<glyph unicode="&#xe92e;" glyph-name="microscope" d="M146.030 302.247c-17.45 0-31.596-14.146-31.596-31.596v0c0-17.45 14.146-31.596 31.596-31.596v0h284.385c17.45 0 31.596 14.146 31.596 31.596v0c0 17.45-14.146 31.596-31.596 31.596v0zM337.346 650.197c-22.983-2.628-44.884-15.011-58.137-36.289l-21.229-34.191c-19.318-31.013-14.763-71.764 11.11-97.633l83.81-83.81c23.586-23.512 59.721-29.743 89.858-15.308v-0.124l37.647 18.023c48.351 23.048 59.705 89.276 21.849 127.132l-100.1 99.977c-17.725 17.725-41.814 24.849-64.802 22.215zM357.465 583.297l99.977-99.977c8.405-8.405 6.389-20.325-4.321-25.427l-37.647-18.023c-6.074-2.911-13.172-1.623-18.023 3.211l-83.688 83.688c-5.317 5.317-6.225 13.071-2.22 19.5l21.353 34.191c5.728 9.198 16.878 10.526 24.564 2.84zM525.208 539.234c-17.45 0-31.596-14.146-31.596-31.596v0c0-17.45 14.146-31.596 31.596-31.596v0h20.982c87.623 0 157.99-70.368 157.99-157.99 0-87.627-70.367-157.99-157.99-157.99-73.794 0-134.635 50.39-152.311 118.496-3.629 13.746-15.95 23.717-30.598 23.717-2.81 0-5.536-0.368-8.131-1.056l0.22 0.049c-13.746-3.629-23.717-15.95-23.717-30.598 0-2.81 0.368-5.536 1.056-8.131l-0.049 0.22c24.693-95.134 110.825-165.889 213.536-165.889 121.78 0 221.188 99.405 221.188 221.188 0 121.78-99.406 221.188-221.188 221.188zM660.364 662.912c-2.943 1.001-6.337 1.577-9.862 1.577-13.909 0-25.721-8.991-29.943-21.474l-0.066-0.221c-1.033-2.984-1.625-6.428-1.625-10.007 0-13.884 8.952-25.675 21.398-29.917l0.221-0.066c119.488-39.514 205.882-151.656 205.882-284.756 0-166.163-134.022-300.183-300.183-300.183-151.538 0-275.88 111.776-296.729 257.229-2.28 15.405-15.415 27.093-31.276 27.093-1.552 0-3.075-0.112-4.569-0.325l0.169 0.022c-15.463-2.227-27.214-15.387-27.214-31.294 0-1.545 0.111-3.063 0.325-4.55l-0.022 0.169c25.223-175.99 176.597-311.54 359.306-311.54 200.314 0 363.38 163.064 363.38 363.38 0 160.484-104.404 296.979-249.206 344.866zM548.905 827.444c-20.29 0.001-40.622-7.662-55.912-22.959l-162.93-162.93c-5.716-5.717-9.252-13.615-9.252-22.339s3.536-16.622 9.252-22.339v0c5.717-5.716 13.615-9.252 22.339-9.252s16.622 3.536 22.339 9.252l162.93 162.93c6.474 6.474 15.929 6.428 22.339 0l75.17-75.17c6.476-6.475 6.431-15.928 0-22.339l-164.165-164.165c-5.716-5.717-9.252-13.615-9.252-22.339s3.536-16.622 9.252-22.339v0c5.717-5.716 13.615-9.252 22.339-9.252s16.622 3.536 22.339 9.252l164.165 164.165c30.642 30.556 30.592 81.115 0 111.707l-75.17 75.17c-15.279 15.316-35.499 22.957-55.788 22.959zM240.823 17.863c-17.45 0-31.596-14.146-31.596-31.596v0c0-17.45 14.146-31.596 31.596-31.596v0h616.169c17.45 0 31.596 14.146 31.596 31.596v0c0 17.45-14.146 31.596-31.596 31.596v0zM667.4 898.664c-20.291-0.001-40.633-7.761-55.912-23.083l-62.826-62.826c-5.716-5.717-9.252-13.615-9.252-22.339s3.536-16.622 9.252-22.339v0c5.717-5.716 13.615-9.252 22.339-9.252s16.622 3.536 22.339 9.252l62.95 62.95c6.409 6.427 15.747 6.469 22.215 0l27.894-27.77c0-0.019 0-0.038 0-0.061s0-0.042 0-0.065v0.004c6.431-6.412 6.476-15.74 0-22.215l-62.95-62.95c-5.716-5.717-9.252-13.615-9.252-22.339s3.536-16.622 9.252-22.339v0c5.717-5.716 13.615-9.252 22.339-9.252s16.622 3.536 22.339 9.252l62.95 62.95c30.592 30.591 30.518 81.15-0.127 111.707l-27.647 27.77c-15.292 15.298-35.619 22.96-55.91 22.959z" />
<glyph unicode="&#xe92f;" glyph-name="monitor" d="M183.467 893.868c-77.203 0-140.8-63.597-140.8-140.8v-469.333c0-77.205 63.598-140.8 140.8-140.8h657.067c77.203 0 140.8 63.597 140.8 140.8v469.333c0 77.202-63.595 140.8-140.8 140.8zM183.467 800h657.067c26.524 0 46.933-20.413 46.933-46.933v-469.333c0-26.526-20.409-46.933-46.933-46.933h-657.067c-26.52 0-46.933 20.41-46.933 46.933v469.333c0 26.518 20.415 46.933 46.933 46.933zM600 236.433c-23.274-3.015-41.069-22.712-41.069-46.566 0-2.068 0.134-4.107 0.394-6.103l-0.025 0.236 23.467-187.733c3.015-23.274 22.712-41.069 46.566-41.069 2.069 0 4.107 0.134 6.103 0.394l-0.236-0.025c23.274 3.015 41.069 22.712 41.069 46.566 0 2.069-0.134 4.107-0.394 6.103l0.025-0.236-23.467 187.733c-3.015 23.274-22.712 41.069-46.566 41.069-2.069 0-4.107-0.134-6.103-0.394l0.236 0.025zM424 236.433c-1.762 0.235-3.8 0.369-5.868 0.369-23.853 0-43.551-17.795-46.539-40.833l-0.025-0.236-23.467-187.733c-0.235-1.762-0.369-3.8-0.369-5.868 0-23.853 17.795-43.551 40.833-46.539l0.236-0.025c1.762-0.235 3.8-0.369 5.868-0.369 23.853 0 43.551 17.795 46.539 40.833l0.025 0.236 23.467 187.733c0.235 1.762 0.369 3.8 0.369 5.868 0 23.853-17.795 43.551-40.833 46.539l-0.236 0.025zM286.744 49.068c-25.92 0-46.933-21.013-46.933-46.933v0c0-25.92 21.013-46.933 46.933-46.933v0h450.512c25.92 0 46.933 21.013 46.933 46.933v0c0 25.92-21.013 46.933-46.933 46.933v0zM89.6 401.068c-25.92 0-46.933-21.013-46.933-46.933v0c0-25.92 21.013-46.933 46.933-46.933v0h844.8c25.92 0 46.933 21.013 46.933 46.933v0c0 25.92-21.013 46.933-46.933 46.933v0z" />
<glyph unicode="&#xe930;" glyph-name="moon" d="M981.026 282.748c-6.218 15.173-20.856 24.338-36.332 24.355-0.080 0-0.156 0.021-0.24 0.021-0.257 0-0.468-0.097-0.725-0.114-3.031-0.084-6.062-0.573-9.073-1.379-1.121-0.295-2.184-0.59-3.267-0.965-0.548-0.198-1.121-0.274-1.686-0.489-49.359-20.282-101.787-30.573-155.868-30.573-226.168 0-410.184 184.013-410.184 410.185 0 54.081 10.268 106.504 30.571 155.862 0.294 0.688 0.394 1.416 0.628 2.124 0.293 0.865 0.551 1.73 0.788 2.635 0.885 3.247 1.437 6.51 1.477 9.777 0 0.137 0.060 0.274 0.060 0.435 0 0.040-0.020 0.097-0.020 0.137 0 2.362-0.274 4.683-0.708 6.965-0.097 0.491-0.177 0.982-0.274 1.477-0.511 2.261-1.159 4.506-2.064 6.631-0.354 0.825-0.845 1.533-1.239 2.321-4.112 8.204-10.92 15.109-20.086 18.867-10.723 4.386-22.19 3.601-31.871-1.022-0.096-0.040-0.217-0.060-0.314-0.116-58.801-24.178-111.876-59.666-157.753-105.543-190.408-190.646-190.408-500.836 0.020-691.519 95.331-95.215 220.525-142.799 345.74-142.799s250.426 47.605 345.78 142.82c45.713 45.742 81.147 98.638 105.325 157.243 0.118 0.215 0.156 0.468 0.257 0.708 1.121 2.34 2.028 4.781 2.677 7.319 0.038 0.198 0.114 0.375 0.177 0.569 1.863 7.757 1.475 16.134-1.792 24.077zM818.791 148.464c-159.996-159.755-420.301-159.755-580.255 0-159.777 159.975-159.777 420.282-0.020 580.235 17.076 17.076 35.528 32.124 54.865 45.68-5.548-29.666-8.421-59.903-8.421-90.611 0-269.566 219.307-488.875 488.873-488.875 30.687 0 60.944 2.875 90.611 8.423-13.575-19.317-28.583-37.77-45.658-54.848z" />
<glyph unicode="&#xe931;" glyph-name="mute" d="M450.976 791.758c-14.78-1.426-29.392-7.101-42.016-17.803l-191.987-162.663c-6.979-5.939-11.378-14.73-11.378-24.549 0-7.941 2.878-15.21 7.646-20.822l-0.038 0.047c5.939-6.979 14.73-11.378 24.549-11.378 7.941 0 15.21 2.878 20.822 7.646l-0.047-0.038 192.028 162.663c0 0.006 0 0.014 0 0.021s0 0.015 0 0.022v-0.001c12.236 10.371 26.475 3.726 26.475-12.318v-577.383c0-16.018-14.269-22.643-26.432-12.317-0.015 0.015-0.029 0.029-0.041 0.041v0l-192.027 162.662c-5.57 4.742-12.846 7.626-20.797 7.626-9.807 0-18.59-4.388-24.492-11.309l-0.037-0.046c-4.744-5.57-7.629-12.848-7.629-20.801 0-9.828 4.407-18.627 11.354-24.529l0.047-0.038 191.987-162.663c50.476-42.852 132.418-4.844 132.418 61.369v577.383c0 49.642-46.058 83.449-90.4 79.174zM123.136 618.915c-44.048 0-80.431-36.386-80.431-80.431v-229.227c0-44.046 36.383-80.431 80.431-80.431h114.613c17.767 0 32.172 14.403 32.172 32.172v0c0 17.767-14.403 32.172-32.172 32.172v0h-114.613c-9.23 0-16.086 6.858-16.086 16.086v229.227c0 9.229 6.856 16.086 16.086 16.086h114.613c17.767 0 32.172 14.403 32.172 32.172v0c0 17.767-14.403 32.172-32.172 32.172v0zM947.383 567.515c-8.884-0.001-16.926-3.604-22.747-9.425l-217.162-217.162c-5.82-5.821-9.421-13.863-9.421-22.747s3.601-16.926 9.421-22.747v0c5.821-5.82 13.863-9.421 22.747-9.421s16.926 3.601 22.747 9.421l217.162 217.162c5.82 5.821 9.421 13.863 9.421 22.747s-3.601 16.926-9.421 22.747v0c-5.821 5.822-13.863 9.424-22.747 9.425v0zM730.221 567.515c-8.884-0.001-16.926-3.604-22.747-9.425v0c-5.82-5.821-9.421-13.863-9.421-22.747s3.601-16.926 9.421-22.747l217.162-217.162c5.821-5.82 13.863-9.421 22.747-9.421s16.926 3.601 22.747 9.421v0c5.82 5.821 9.421 13.863 9.421 22.747s-3.601 16.926-9.421 22.747l-217.162 217.162c-5.821 5.822-13.863 9.424-22.747 9.425v0z" />
<glyph unicode="&#xe932;" glyph-name="next" d="M292.571 902.096c-10.098-0.002-19.24-4.096-25.857-10.714v0c-6.616-6.618-10.709-15.76-10.709-25.857s4.092-19.239 10.709-25.857l413-413-413-413c-6.617-6.618-10.709-15.76-10.709-25.857s4.092-19.239 10.709-25.857v0c6.618-6.616 15.76-10.709 25.857-10.709s19.239 4.092 25.857 10.709l438.857 438.857c6.616 6.618 10.707 15.76 10.707 25.857s-4.092 19.239-10.707 25.857l-438.857 438.857c-6.617 6.619-15.759 10.713-25.857 10.714v0z" />
<glyph unicode="&#xe933;" glyph-name="next-round" d="M920.894 811.421c-25.921 0-46.934-21.013-46.934-46.934v0-88.855h-88.855c-25.637-0.375-46.275-21.242-46.275-46.934s20.638-46.559 46.239-46.934h135.824c25.921 0 46.934 21.013 46.934 46.934v0 135.789c0 25.921-21.013 46.934-46.934 46.934v0zM525.505 896c-258.671 0-469.334-210.71-469.334-469.334 0-258.626 210.682-469.334 469.334-469.334 134.524 0 239.269 46.975 327.922 133.589 8.749 8.533 14.177 20.439 14.177 33.611 0 12.748-5.081 24.307-13.33 32.766l0.011-0.011c-8.533 8.749-20.439 14.177-33.611 14.177-12.748 0-24.307-5.081-32.766-13.33l0.011 0.011c-75.69-73.948-147.986-106.945-262.411-106.945-207.916 0-375.466 167.576-375.466 375.466 0 207.894 167.527 375.466 375.466 375.466 142.723 0 266.108-79.262 329.755-195.922 8.129-14.67 23.519-24.437 41.191-24.437 8.244 0 15.993 2.125 22.728 5.861l-0.24-0.121c14.724 8.113 24.533 23.531 24.533 41.242 0 8.224-2.116 15.956-5.833 22.676l0.121-0.241c-79.593 145.886-234.706 244.811-412.255 244.811z" />
<glyph unicode="&#xe934;" glyph-name="pen-tool" d="M486.048 894.411c-17.024-5.44-25.376-11.84-57.888-44.32-28.384-28.352-32.416-33.12-37.888-44.544-13.472-28.288-11.328-61.44 5.504-85.12l3.36-4.704-174.72-174.336-10.24 1.376c-14.432 1.92-72.576 1.888-87.872-0.064-33.504-4.288-62.816-31.2-70.784-64.992-3.648-15.488-3.648-86.592 0-102.080 7.52-31.84 33.568-57.504 65.184-64.224 16.064-3.392 83.872-3.392 99.904 0 31.84 6.752 58.56 33.472 65.312 65.312 2.784 13.216 3.392 83.104 0.832 96.032l-1.536 7.68 174.304 174.528 7.904-4.896c26.464-16.448 63.296-16.48 89.152-0.064l7.872 4.992 174.336-174.56-1.536-7.68c-2.56-12.928-1.952-82.816 0.832-96.032 6.752-31.84 33.472-58.56 65.312-65.312 16.032-3.392 83.84-3.392 99.904 0 31.808 6.752 58.56 33.472 65.28 65.312 3.424 16.032 3.424 83.872 0 99.904-7.2 34.048-36.896 61.728-70.88 66.080-15.296 1.952-73.44 1.984-87.872 0.064l-10.24-1.376-174.56 174.176 4.992 7.872c16.16 25.504 16.032 63.584-0.352 89.792-2.912 4.704-18.88 22.016-35.456 38.496-31.264 31.104-40.768 38.144-58.208 43.264-12.704 3.744-37.376 3.456-49.952-0.576zM535.040 790.187l22.144-22.208-45.184-45.184-45.184 45.184 22.144 22.208c12.16 12.192 22.528 22.176 23.040 22.176s10.88-9.984 23.040-22.176zM494.080 550.667c-4.704-2.208-10.848-6.688-13.664-9.984-9.12-10.656-172.256-233.344-175.776-239.904-2.592-4.832-3.392-9.504-3.296-19.168l0.096-12.8 32.736-74.24 32.768-74.24v-61.568c0-72.992 0.32-75.136 14.24-88.672 5.376-5.216 11.52-9.376 15.808-10.656 10.080-3.008 219.936-3.008 230.016 0 4.288 1.28 10.432 5.44 15.808 10.656 13.92 13.536 14.24 15.68 14.24 88.672v61.568l32.768 74.24 32.736 74.24 0.096 12.8c0.096 9.664-0.704 14.336-3.296 19.168-3.488 6.56-166.592 229.12-175.776 239.904-11.456 13.44-32.832 17.76-49.504 9.984zM203.104 426.667v-32.416h-64.864v64.832h64.864v-32.416zM885.76 426.667v-32.416h-64.864v64.832h64.864v-32.416zM472.96 267.947c6.944-14.912 22.24-24.512 39.040-24.512 12.672 0 21.472 3.68 30.592 12.864 10.944 10.976 11.136 12.192 12.064 71.072l0.864 53.44 37.44-50.848c20.608-27.968 37.504-52.16 37.568-53.76 0.032-1.6-9.888-25.984-22.112-54.176l-22.176-51.264h-148.48l-22.72 52.192c-12.512 28.704-22.336 53.248-21.824 54.528 0.48 1.28 17.632 25.088 38.080 52.896l37.184 50.528 0.864-53.504c0.704-44.608 1.312-54.464 3.616-59.456zM571.744 64.011v-21.344h-119.488v42.656h119.488v-21.312z" />
<glyph unicode="&#xe935;" glyph-name="pencil" d="M163.548 890.349c-49.478-7.396-93.636-42.54-110.47-87.932-10.142-27.468-9.684-10.812-9.684-332.818 0-280.136 0.212-300.49 3.346-313.73 11.022-46.872 47.752-86.946 94.342-102.792l15.002-5.106 181.78-0.528c127.020-0.388 184.070 0.070 189.386 1.514 9.754 2.642 23.7 15.388 28.418 25.988 4.542 10.178 4.79 26.834 0.564 36.94-3.838 9.226-12.784 18.7-22.644 24.052l-7.5 4.050-177.484 0.95c-140.544 0.74-178.646 1.444-183.118 3.38-8.134 3.556-19.614 15.142-23.664 23.84-3.346 7.22-3.486 18.946-3.522 301.476l-0.036 293.94 3.944 7.5c5.282 10.002 12.29 17.29 21.41 22.22l7.5 4.050h589.746l7.5-4.050c7.994-4.332 15.142-11.268 20.882-20.284 3.38-5.318 3.592-13.452 4.472-183.118 1.056-201.394-0.212-186.252 16.938-201.642 19.122-17.22 45.146-16.798 63.352 1.056 15.494 15.178 14.544 2.218 14.544 203.296 0 163.080-0.282 179.526-3.24 191.076-12.854 50.006-49.196 87.756-99.412 103.25l-13.77 4.262-299.574 0.282c-164.772 0.14-303.8-0.352-309.012-1.126zM399.312 559.609c-10.424-4.718-17.89-11.62-23.172-21.446-3.908-7.254-4.084-10.002-4.614-75.396-0.598-74.092 0.246-82.79 10.106-102.582 3.944-7.924 41.096-46.096 191.112-196.324 102.44-102.582 189.95-189 194.492-192.028 19.192-12.818 48.21-18.136 72.050-13.17 23.312 4.824 30.814 10.388 78.6 58.14 40.18 40.18 44.97 45.604 51.168 58.386 13.312 27.398 13.312 55.042 0.036 83.002-6.338 13.276-12.712 19.862-194.704 201.642-143.044 142.868-190.478 189.14-197.732 192.944-19.228 10.036-25.706 10.74-100.258 10.67-64.972-0.036-69.092-0.212-77.086-3.838zM708.254 293.065l176.532-176.532-65.676-65.782-354.052 354.052v64.796h66.662l176.532-176.532z" />
</font>
</defs>
</svg>
