<svg width="71" height="71" viewBox="0 0 71 71" fill="none" xmlns="http://www.w3.org/2000/svg">
<path d="M0.48938 35.1254C0.48938 54.4334 16.1414 70.0854 35.448 70.0854C54.756 70.0854 70.408 54.4334 70.408 35.1254C70.408 15.8187 54.756 0.166748 35.448 0.166748C16.1414 0.166748 0.48938 15.8187 0.48938 35.1254Z" fill="url(#paint0_radial_18_15)"/>
<path d="M8.74268 35.5401C8.74268 50.4668 20.8427 62.5681 35.7693 62.5681C50.6973 62.5681 62.7973 50.4668 62.7973 35.5401C62.7973 20.6135 50.6973 8.51343 35.7693 8.51343C20.8427 8.51343 8.74268 20.6135 8.74268 35.5401Z" fill="url(#paint1_linear_18_15)"/>
<path d="M14.1934 35.5401C14.1934 47.4561 23.8547 57.1174 35.7694 57.1174C47.6854 57.1174 57.3467 47.4561 57.3467 35.5401C57.3467 23.6241 47.6854 13.9628 35.7694 13.9628C23.8547 13.9628 14.1934 23.6241 14.1934 35.5401Z" fill="url(#paint2_radial_18_15)"/>
<path d="M14.1934 35.5401C14.1934 47.4561 23.8547 57.1174 35.7694 57.1174C47.6854 57.1174 57.3467 47.4561 57.3467 35.5401C57.3467 23.6241 47.6854 13.9628 35.7694 13.9628C23.8547 13.9628 14.1934 23.6241 14.1934 35.5401Z" fill="url(#paint3_radial_18_15)"/>
<path fill-rule="evenodd" clip-rule="evenodd" d="M39.9752 33.6616C40.7832 33.6616 41.4392 34.3176 41.4392 35.1256C41.4392 35.9336 40.7832 36.5896 39.9752 36.5896C39.1672 36.5896 38.5112 35.9336 38.5112 35.1256C38.5112 34.3176 39.1672 33.6616 39.9752 33.6616Z" fill="white"/>
<path fill-rule="evenodd" clip-rule="evenodd" d="M35.7702 35.7867C37.2049 35.7867 38.3675 36.9493 38.3675 38.384C38.3675 39.8187 37.2049 40.9827 35.7702 40.9827C34.3355 40.9827 33.1729 39.8187 33.1729 38.384C33.1729 36.9493 34.3355 35.7867 35.7702 35.7867Z" fill="white"/>
<path fill-rule="evenodd" clip-rule="evenodd" d="M35.7702 29.9448C36.3288 29.9448 36.7822 30.3981 36.7822 30.9568C36.7822 31.5154 36.3288 31.9688 35.7702 31.9688C35.2115 31.9688 34.7582 31.5154 34.7582 30.9568C34.7582 30.3981 35.2115 29.9448 35.7702 29.9448Z" fill="white"/>
<path d="M8.74268 35.5401C8.74268 50.4668 20.8427 62.5681 35.7693 62.5681C50.6973 62.5681 62.7973 50.4668 62.7973 35.5401C62.7973 20.6135 50.6973 8.51343 35.7693 8.51343C20.8427 8.51343 8.74268 20.6135 8.74268 35.5401ZM14.1933 35.5401C14.1933 23.6241 23.8547 13.9628 35.7693 13.9628C47.6853 13.9628 57.3467 23.6241 57.3467 35.5401C57.3467 47.4561 47.6853 57.1174 35.7693 57.1174C32.2693 57.1174 28.9653 56.2841 26.0427 54.8054V47.3227C28.684 49.5067 32.0733 50.8201 35.7693 50.8201C44.208 50.8201 51.048 43.9788 51.048 35.5401C51.048 28.4348 46.1987 22.4641 39.6293 20.7548L38.444 22.4708V26.1855C42.516 27.3468 45.4973 31.0961 45.4973 35.5401C45.4973 40.9135 41.1427 45.2681 35.7693 45.2681C30.3973 45.2681 26.0427 40.9135 26.0427 35.5401C26.0427 31.0961 29.024 27.3468 33.096 26.1855V22.4708L31.9107 20.7548C25.3413 22.4641 20.4907 28.4348 20.4907 35.5401V50.7748C16.5987 46.8735 14.1933 41.4881 14.1933 35.5401Z" fill="url(#paint4_radial_18_15)"/>
<path d="M8.74268 35.5401C8.74268 50.4668 20.8427 62.5681 35.7693 62.5681C50.6973 62.5681 62.7973 50.4668 62.7973 35.5401C62.7973 20.6135 50.6973 8.51343 35.7693 8.51343C20.8427 8.51343 8.74268 20.6135 8.74268 35.5401ZM14.1933 35.5401C14.1933 23.6241 23.8547 13.9628 35.7693 13.9628C47.6853 13.9628 57.3467 23.6241 57.3467 35.5401C57.3467 47.4561 47.6853 57.1174 35.7693 57.1174C32.2693 57.1174 28.9653 56.2841 26.0427 54.8054V47.3227C28.684 49.5067 32.0733 50.8201 35.7693 50.8201C44.208 50.8201 51.048 43.9788 51.048 35.5401C51.048 28.4348 46.1987 22.4641 39.6293 20.7548L38.444 22.4708V26.1855C42.516 27.3468 45.4973 31.0961 45.4973 35.5401C45.4973 40.9135 41.1427 45.2681 35.7693 45.2681C30.3973 45.2681 26.0427 40.9135 26.0427 35.5401C26.0427 31.0961 29.024 27.3468 33.096 26.1855V22.4708L31.9107 20.7548C25.3413 22.4641 20.4907 28.4348 20.4907 35.5401V50.7748C16.5987 46.8735 14.1933 41.4881 14.1933 35.5401Z" fill="url(#paint5_linear_18_15)"/>
<defs>
<radialGradient id="paint0_radial_18_15" cx="0" cy="0" r="1" gradientUnits="userSpaceOnUse" gradientTransform="translate(35.4487 35.1254) scale(34.9592)">
<stop stop-color="#E6E6E6"/>
<stop offset="0.541899" stop-color="#E6E6E6"/>
<stop offset="0.848693" stop-color="#E6E6E6"/>
<stop offset="1" stop-color="#E6E6E6"/>
</radialGradient>
<linearGradient id="paint1_linear_18_15" x1="8.74225" y1="35.5405" x2="62.797" y2="35.5405" gradientUnits="userSpaceOnUse">
<stop stop-color="#F5F6FA"/>
<stop offset="1" stop-color="#EBECF0"/>
</linearGradient>
<radialGradient id="paint2_radial_18_15" cx="0" cy="0" r="1" gradientUnits="userSpaceOnUse" gradientTransform="translate(35.7494 35.5259) rotate(33.5959) scale(21.5793)">
<stop stop-color="#D5ECF3"/>
<stop offset="0.3" stop-color="#009EE3"/>
<stop offset="0.55" stop-color="#005197"/>
<stop offset="0.74" stop-color="#003E77"/>
<stop offset="1" stop-color="#00B0DB"/>
</radialGradient>
<radialGradient id="paint3_radial_18_15" cx="0" cy="0" r="1" gradientUnits="userSpaceOnUse" gradientTransform="translate(35.7697 35.7868) scale(30.3892)">
<stop stop-color="#0094C5"/>
<stop offset="0.154054" stop-color="#0094C5"/>
<stop offset="0.721779" stop-color="#005D9D"/>
<stop offset="0.748649" stop-color="#005D9D"/>
<stop offset="1" stop-color="#005D9D"/>
</radialGradient>
<radialGradient id="paint4_radial_18_15" cx="0" cy="0" r="1" gradientUnits="userSpaceOnUse" gradientTransform="translate(30.5729 27.8317) rotate(47.8223) scale(36.172 35.5479)">
<stop stop-color="white"/>
<stop offset="0.33" stop-color="white"/>
<stop offset="0.8" stop-color="#9C9C9C"/>
<stop offset="1" stop-color="#ECECEC"/>
</radialGradient>
<linearGradient id="paint5_linear_18_15" x1="2.61762" y1="10.8046" x2="68.9217" y2="49.0853" gradientUnits="userSpaceOnUse">
<stop stop-color="#F0F1F5"/>
<stop offset="1" stop-color="#E6E7EB"/>
</linearGradient>
</defs>
</svg>
