<svg preserveAspectRatio="none" viewBox="0 0 20 20" fill="none" xmlns="http://www.w3.org/2000/svg"><path fill-rule="evenodd" clip-rule="evenodd" d="M16.6667 16.6667V4.815C16.6667 3.99667 16.0033 3.33333 15.185 3.33333H4.815C3.99667 3.33333 3.33333 3.99667 3.33333 4.815V13.7042C3.33333 14.5225 3.99667 15.1858 4.815 15.1858H13.8892L16.6667 16.6667Z" stroke="#666F7E" stroke-width="1.3333" stroke-linecap="round" stroke-linejoin="round"></path><path d="M10.1475 9.2275C10.2292 9.30917 10.2292 9.44083 10.1475 9.5225C10.0658 9.60417 9.93417 9.60417 9.8525 9.5225C9.77083 9.44083 9.77083 9.30917 9.8525 9.2275C9.93417 9.14583 10.0658 9.14667 10.1475 9.2275" stroke="#666F7E" stroke-width="1.5" stroke-linecap="round" stroke-linejoin="round"></path><path d="M13.4808 9.2275C13.5625 9.30917 13.5625 9.44083 13.4808 9.5225C13.3992 9.60417 13.2675 9.60417 13.1858 9.5225C13.1042 9.44083 13.1042 9.30917 13.1858 9.2275C13.2675 9.14583 13.3992 9.14667 13.4808 9.2275" stroke="#666F7E" stroke-width="1.5" stroke-linecap="round" stroke-linejoin="round"></path><path d="M6.81417 9.2275C6.89583 9.30917 6.89583 9.44083 6.81417 9.5225C6.7325 9.60417 6.60083 9.60417 6.51917 9.5225C6.4375 9.44083 6.4375 9.30917 6.51917 9.2275C6.60083 9.14583 6.7325 9.14667 6.81417 9.2275" stroke="#666F7E" stroke-width="1.5" stroke-linecap="round" stroke-linejoin="round"></path></svg>