<svg preserveAspectRatio="none" viewBox="0 0 20 20" fill="none" xmlns="http://www.w3.org/2000/svg"><path fill-rule="evenodd" clip-rule="evenodd" d="M2.5 9.40917C2.5 11.645 3.68333 13.6133 5.49917 14.8542C5.49833 15.5667 5.5 16.5267 5.5 17.5342L8.4425 16.0783C8.94583 16.175 9.46583 16.2275 10 16.2275C14.1267 16.2275 17.5 13.1917 17.5 9.40917C17.5 5.62667 14.1267 2.59083 10 2.59083C5.87333 2.59083 2.5 5.62667 2.5 9.40917Z" stroke="#666F7E" stroke-width="1.5" stroke-linecap="round" stroke-linejoin="round"></path><path d="M9.91583 10.2733V10.1008C9.91583 9.53583 10.265 9.23 10.615 8.995C10.9567 8.765 11.2992 8.465 11.2992 7.91167C11.2992 7.1475 10.68 6.52917 9.91667 6.52917C9.15333 6.52917 8.53333 7.14667 8.53333 7.91083" stroke="#666F7E" stroke-width="1.5" stroke-linecap="round" stroke-linejoin="round"></path><path d="M9.915 12.2225C9.84583 12.2225 9.79 12.2783 9.79083 12.3475C9.79083 12.4167 9.84667 12.4725 9.91583 12.4725C9.985 12.4725 10.0408 12.4167 10.0408 12.3475C10.0408 12.2783 9.98583 12.2225 9.915 12.2225" stroke="#666F7E" stroke-width="1.5" stroke-linecap="round" stroke-linejoin="round"></path></svg>