<svg preserveAspectRatio="none" viewBox="0 0 20 20" fill="none" xmlns="http://www.w3.org/2000/svg" class="_icon28_89zj4_1865"><path fill-rule="evenodd" clip-rule="evenodd" d="M3.62497 1.66674C2.56473 1.66674 1.66664 2.56484 1.66664 3.62507V7.37507C1.66664 8.43533 2.56473 9.33342 3.62497 9.33342H7.37497C8.43525 9.33342 9.33333 8.43533 9.33333 7.37507V3.62507C9.33333 2.56484 8.43525 1.66674 7.37497 1.66674H3.62497ZM3.33331 3.62507C3.33331 3.48532 3.48521 3.33341 3.62497 3.33341H7.37497C7.51474 3.33341 7.66664 3.48532 7.66664 3.62507V7.37507C7.66664 7.51484 7.51474 7.66674 7.37497 7.66674H3.62497C3.48521 7.66674 3.33331 7.51484 3.33331 7.37507V3.62507Z" fill="#666F7E"></path><path fill-rule="evenodd" clip-rule="evenodd" d="M12.625 1.66674C11.5648 1.66674 10.6667 2.56484 10.6667 3.62507V7.37507C10.6667 8.43533 11.5648 9.33342 12.625 9.33342H16.375C17.4353 9.33342 18.3333 8.43533 18.3333 7.37507V3.62507C18.3333 2.56484 17.4353 1.66674 16.375 1.66674H12.625ZM12.3333 3.62507C12.3333 3.48532 12.4853 3.33341 12.625 3.33341H16.375C16.5148 3.33341 16.6667 3.48532 16.6667 3.62507V7.37507C16.6667 7.51484 16.5148 7.66674 16.375 7.66674H12.625C12.4853 7.66674 12.3333 7.51484 12.3333 7.37507V3.62507Z" fill="#666F7E"></path><path fill-rule="evenodd" clip-rule="evenodd" d="M1.66664 12.6249C1.66664 11.5647 2.56473 10.6666 3.62497 10.6666H7.37497C8.43525 10.6666 9.33333 11.5647 9.33333 12.6249V16.3749C9.33333 17.4352 8.43525 18.3333 7.37497 18.3333H3.62497C2.56473 18.3333 1.66664 17.4352 1.66664 16.3749V12.6249ZM3.62497 12.3333C3.48521 12.3333 3.33331 12.4852 3.33331 12.6249V16.3749C3.33331 16.5147 3.48521 16.6666 3.62497 16.6666H7.37497C7.51474 16.6666 7.66664 16.5147 7.66664 16.3749V12.6249C7.66664 12.4852 7.51474 12.3333 7.37497 12.3333H3.62497Z" fill="#666F7E"></path><path fill-rule="evenodd" clip-rule="evenodd" d="M12.625 10.6666C11.5648 10.6666 10.6667 11.5647 10.6667 12.6249V16.3749C10.6667 17.4352 11.5648 18.3333 12.625 18.3333H16.375C17.4353 18.3333 18.3333 17.4352 18.3333 16.3749V12.6249C18.3333 11.5647 17.4353 10.6666 16.375 10.6666H12.625ZM12.3333 12.6249C12.3333 12.4852 12.4853 12.3333 12.625 12.3333H16.375C16.5148 12.3333 16.6667 12.4852 16.6667 12.6249V16.3749C16.6667 16.5147 16.5148 16.6666 16.375 16.6666H12.625C12.4853 16.6666 12.3333 16.5147 12.3333 16.3749V12.6249Z" fill="#666F7E"></path></svg>