<svg preserveAspectRatio="none" viewBox="0 0 24 24" fill="none" xmlns="http://www.w3.org/2000/svg"><path fill-rule="evenodd" clip-rule="evenodd" d="M18.0136 6.76313L15.2642 4.11188C14.8996 3.76031 14.4047 3.5625 13.8894 3.5625H6.91667C5.84236 3.5625 4.97222 4.40156 4.97222 5.4375V18.5625C4.97222 19.5984 5.84236 20.4375 6.91667 20.4375H16.6389C17.7132 20.4375 18.5833 19.5984 18.5833 18.5625V8.08875C18.5833 7.59188 18.3782 7.11469 18.0136 6.76313V6.76313Z" stroke="#666F7E" stroke-width="1.25" stroke-linecap="round" stroke-linejoin="round"></path><path d="M15.6667 10.2465H11.0486" stroke="#666F7E" stroke-width="1.25" stroke-linecap="round" stroke-linejoin="round"></path><path d="M8.01042 10.134C7.94333 10.134 7.88889 10.1865 7.88889 10.2512C7.88889 10.3159 7.94333 10.3684 8.01042 10.3684C8.0775 10.3684 8.13194 10.3159 8.13194 10.2512C8.13194 10.1865 8.0775 10.134 8.01042 10.134" stroke="#666F7E" stroke-width="1.25" stroke-linecap="round" stroke-linejoin="round"></path><path d="M15.6667 12.9665H11.0486" stroke="#666F7E" stroke-width="1.25" stroke-linecap="round" stroke-linejoin="round"></path><path d="M8.01042 12.8493C7.94333 12.8493 7.88889 12.9018 7.88889 12.9665C7.88889 13.0311 7.94333 13.0836 8.01042 13.0836C8.0775 13.0836 8.13194 13.0311 8.13194 12.9665C8.13194 12.9018 8.0775 12.8493 8.01042 12.8493" stroke="#666F7E" stroke-width="1.25" stroke-linecap="round" stroke-linejoin="round"></path><path d="M15.6667 15.6864H11.0486" stroke="#666F7E" stroke-width="1.25" stroke-linecap="round" stroke-linejoin="round"></path><path d="M8.01042 15.5645C7.94333 15.5645 7.88889 15.617 7.88889 15.6817C7.88889 15.7464 7.94333 15.7989 8.01042 15.7989C8.0775 15.7989 8.13194 15.7464 8.13194 15.6817C8.13194 15.617 8.0775 15.5645 8.01042 15.5645" stroke="#666F7E" stroke-width="1.25" stroke-linecap="round" stroke-linejoin="round"></path></svg>